<svg xmlns="http://www.w3.org/2000/svg" xmlns:xlink="http://www.w3.org/1999/xlink" width="108" zoomAndPan="magnify" viewBox="0 0 81 80.999996" height="108" preserveAspectRatio="xMidYMid meet" version="1.0"><defs><clipPath id="10ecf8f677"><path d="M 24.535156 0.289062 L 27.234375 0.289062 L 27.234375 19.8125 L 24.535156 19.8125 Z M 24.535156 0.289062 " clip-rule="nonzero"/></clipPath><clipPath id="1fe0ae0a75"><path d="M 25.882812 0.289062 C 26.242188 0.289062 26.585938 0.429688 26.835938 0.683594 C 27.089844 0.9375 27.234375 1.28125 27.234375 1.636719 L 27.234375 18.453125 C 27.234375 18.8125 27.089844 19.152344 26.835938 19.40625 C 26.585938 19.660156 26.242188 19.800781 25.882812 19.800781 C 25.523438 19.800781 25.183594 19.660156 24.929688 19.40625 C 24.675781 19.152344 24.535156 18.8125 24.535156 18.453125 L 24.535156 1.636719 C 24.535156 1.28125 24.675781 0.9375 24.929688 0.683594 C 25.183594 0.429688 25.523438 0.289062 25.882812 0.289062 Z M 25.882812 0.289062 " clip-rule="nonzero"/></clipPath><clipPath id="d90ef0f219"><path d="M 0.535156 0.289062 L 3.234375 0.289062 L 3.234375 19.8125 L 0.535156 19.8125 Z M 0.535156 0.289062 " clip-rule="nonzero"/></clipPath><clipPath id="4953ae608a"><path d="M 1.882812 0.289062 C 2.242188 0.289062 2.585938 0.429688 2.835938 0.683594 C 3.089844 0.9375 3.234375 1.28125 3.234375 1.636719 L 3.234375 18.453125 C 3.234375 18.8125 3.089844 19.152344 2.835938 19.40625 C 2.585938 19.660156 2.242188 19.800781 1.882812 19.800781 C 1.523438 19.800781 1.183594 19.660156 0.929688 19.40625 C 0.675781 19.152344 0.535156 18.8125 0.535156 18.453125 L 0.535156 1.636719 C 0.535156 1.28125 0.675781 0.9375 0.929688 0.683594 C 1.183594 0.429688 1.523438 0.289062 1.882812 0.289062 Z M 1.882812 0.289062 " clip-rule="nonzero"/></clipPath><clipPath id="c7ec99dff3"><rect x="0" width="4" y="0" height="20"/></clipPath><clipPath id="d642f2dac9"><path d="M 24.535156 24.160156 L 27.234375 24.160156 L 27.234375 44.222656 L 24.535156 44.222656 Z M 24.535156 24.160156 " clip-rule="nonzero"/></clipPath><clipPath id="5c32dab1b2"><path d="M 25.882812 24.160156 C 26.242188 24.160156 26.585938 24.304688 26.835938 24.558594 C 27.089844 24.808594 27.234375 25.152344 27.234375 25.511719 L 27.234375 42.867188 C 27.234375 43.222656 27.089844 43.566406 26.835938 43.820312 C 26.585938 44.074219 26.242188 44.214844 25.882812 44.214844 C 25.523438 44.214844 25.183594 44.074219 24.929688 43.820312 C 24.675781 43.566406 24.535156 43.222656 24.535156 42.867188 L 24.535156 25.511719 C 24.535156 25.152344 24.675781 24.808594 24.929688 24.558594 C 25.183594 24.304688 25.523438 24.160156 25.882812 24.160156 Z M 25.882812 24.160156 " clip-rule="nonzero"/></clipPath><clipPath id="c8f6cd5738"><path d="M 0.535156 0.160156 L 3.234375 0.160156 L 3.234375 20.222656 L 0.535156 20.222656 Z M 0.535156 0.160156 " clip-rule="nonzero"/></clipPath><clipPath id="ed208d83be"><path d="M 1.882812 0.160156 C 2.242188 0.160156 2.585938 0.304688 2.835938 0.558594 C 3.089844 0.808594 3.234375 1.152344 3.234375 1.511719 L 3.234375 18.867188 C 3.234375 19.222656 3.089844 19.566406 2.835938 19.820312 C 2.585938 20.074219 2.242188 20.214844 1.882812 20.214844 C 1.523438 20.214844 1.183594 20.074219 0.929688 19.820312 C 0.675781 19.566406 0.535156 19.222656 0.535156 18.867188 L 0.535156 1.511719 C 0.535156 1.152344 0.675781 0.808594 0.929688 0.558594 C 1.183594 0.304688 1.523438 0.160156 1.882812 0.160156 Z M 1.882812 0.160156 " clip-rule="nonzero"/></clipPath><clipPath id="34ab219f5a"><rect x="0" width="4" y="0" height="21"/></clipPath><clipPath id="5a29dee5ba"><path d="M 19.746094 2.953125 L 22.445312 2.953125 L 22.445312 40.320312 L 19.746094 40.320312 Z M 19.746094 2.953125 " clip-rule="nonzero"/></clipPath><clipPath id="a6710e5bc4"><path d="M 21.097656 40.320312 C 20.738281 40.320312 20.394531 40.179688 20.144531 39.925781 C 19.890625 39.675781 19.746094 39.332031 19.746094 38.972656 L 19.746094 4.304688 C 19.746094 3.949219 19.890625 3.605469 20.144531 3.351562 C 20.394531 3.097656 20.738281 2.957031 21.097656 2.957031 C 21.457031 2.957031 21.796875 3.097656 22.050781 3.351562 C 22.304688 3.605469 22.445312 3.949219 22.445312 4.304688 L 22.445312 38.972656 C 22.445312 39.332031 22.304688 39.675781 22.050781 39.925781 C 21.796875 40.179688 21.457031 40.320312 21.097656 40.320312 Z M 21.097656 40.320312 " clip-rule="nonzero"/></clipPath><clipPath id="ac87afa2a3"><path d="M 0.746094 0.953125 L 3.445312 0.953125 L 3.445312 38.320312 L 0.746094 38.320312 Z M 0.746094 0.953125 " clip-rule="nonzero"/></clipPath><clipPath id="75c34ac0f3"><path d="M 2.097656 38.320312 C 1.738281 38.320312 1.394531 38.179688 1.144531 37.925781 C 0.890625 37.675781 0.746094 37.332031 0.746094 36.972656 L 0.746094 2.304688 C 0.746094 1.949219 0.890625 1.605469 1.144531 1.351562 C 1.394531 1.097656 1.738281 0.957031 2.097656 0.957031 C 2.457031 0.957031 2.796875 1.097656 3.050781 1.351562 C 3.304688 1.605469 3.445312 1.949219 3.445312 2.304688 L 3.445312 36.972656 C 3.445312 37.332031 3.304688 37.675781 3.050781 37.925781 C 2.796875 38.179688 2.457031 38.320312 2.097656 38.320312 Z M 2.097656 38.320312 " clip-rule="nonzero"/></clipPath><clipPath id="ccefab3717"><rect x="0" width="4" y="0" height="39"/></clipPath><clipPath id="b87461d9b0"><path d="M 15.125 7.292969 L 17.824219 7.292969 L 17.824219 36.355469 L 15.125 36.355469 Z M 15.125 7.292969 " clip-rule="nonzero"/></clipPath><clipPath id="44571cc8a6"><path d="M 16.472656 36.355469 C 16.117188 36.355469 15.773438 36.214844 15.519531 35.960938 C 15.265625 35.707031 15.125 35.367188 15.125 35.007812 L 15.125 8.644531 C 15.125 8.285156 15.265625 7.941406 15.519531 7.691406 C 15.773438 7.4375 16.117188 7.292969 16.472656 7.292969 C 16.832031 7.292969 17.175781 7.4375 17.425781 7.691406 C 17.679688 7.941406 17.824219 8.285156 17.824219 8.644531 L 17.824219 35.007812 C 17.824219 35.367188 17.679688 35.707031 17.425781 35.960938 C 17.175781 36.214844 16.832031 36.355469 16.472656 36.355469 Z M 16.472656 36.355469 " clip-rule="nonzero"/></clipPath><clipPath id="e29e116d4f"><path d="M 0.125 0.292969 L 2.824219 0.292969 L 2.824219 29.355469 L 0.125 29.355469 Z M 0.125 0.292969 " clip-rule="nonzero"/></clipPath><clipPath id="52a03d753b"><path d="M 1.472656 29.355469 C 1.117188 29.355469 0.773438 29.214844 0.519531 28.960938 C 0.265625 28.707031 0.125 28.367188 0.125 28.007812 L 0.125 1.644531 C 0.125 1.285156 0.265625 0.941406 0.519531 0.691406 C 0.773438 0.4375 1.117188 0.292969 1.472656 0.292969 C 1.832031 0.292969 2.175781 0.4375 2.425781 0.691406 C 2.679688 0.941406 2.824219 1.285156 2.824219 1.644531 L 2.824219 28.007812 C 2.824219 28.367188 2.679688 28.707031 2.425781 28.960938 C 2.175781 29.214844 1.832031 29.355469 1.472656 29.355469 Z M 1.472656 29.355469 " clip-rule="nonzero"/></clipPath><clipPath id="9d0e047070"><rect x="0" width="3" y="0" height="30"/></clipPath><clipPath id="ba40745008"><path d="M 10.527344 11.25 L 13.226562 11.25 L 13.226562 32.019531 L 10.527344 32.019531 Z M 10.527344 11.25 " clip-rule="nonzero"/></clipPath><clipPath id="c64a341795"><path d="M 11.878906 32.019531 C 11.519531 32.019531 11.175781 31.875 10.921875 31.625 C 10.671875 31.371094 10.527344 31.027344 10.527344 30.667969 L 10.527344 12.609375 C 10.527344 12.25 10.671875 11.90625 10.921875 11.65625 C 11.175781 11.402344 11.519531 11.257812 11.878906 11.257812 C 12.234375 11.257812 12.578125 11.402344 12.832031 11.65625 C 13.085938 11.90625 13.226562 12.25 13.226562 12.609375 L 13.226562 30.667969 C 13.226562 31.027344 13.085938 31.371094 12.832031 31.625 C 12.578125 31.875 12.234375 32.019531 11.878906 32.019531 Z M 11.878906 32.019531 " clip-rule="nonzero"/></clipPath><clipPath id="90798fdbc8"><path d="M 0.527344 0.25 L 3.226562 0.25 L 3.226562 21.019531 L 0.527344 21.019531 Z M 0.527344 0.25 " clip-rule="nonzero"/></clipPath><clipPath id="e4e39ab566"><path d="M 1.878906 21.019531 C 1.519531 21.019531 1.175781 20.875 0.921875 20.625 C 0.671875 20.371094 0.527344 20.027344 0.527344 19.667969 L 0.527344 1.609375 C 0.527344 1.25 0.671875 0.90625 0.921875 0.65625 C 1.175781 0.402344 1.519531 0.257812 1.878906 0.257812 C 2.234375 0.257812 2.578125 0.402344 2.832031 0.65625 C 3.085938 0.90625 3.226562 1.25 3.226562 1.609375 L 3.226562 19.667969 C 3.226562 20.027344 3.085938 20.371094 2.832031 20.625 C 2.578125 20.875 2.234375 21.019531 1.878906 21.019531 Z M 1.878906 21.019531 " clip-rule="nonzero"/></clipPath><clipPath id="c9ba2ff314"><rect x="0" width="4" y="0" height="22"/></clipPath><clipPath id="dcbb57c481"><path d="M 5.660156 18.023438 L 8.359375 18.023438 L 8.359375 26.332031 L 5.660156 26.332031 Z M 5.660156 18.023438 " clip-rule="nonzero"/></clipPath><clipPath id="b24a6aadcd"><path d="M 7.007812 26.332031 C 6.652344 26.332031 6.308594 26.1875 6.054688 25.9375 C 5.800781 25.683594 5.660156 25.339844 5.660156 24.980469 L 5.660156 19.378906 C 5.660156 19.019531 5.800781 18.675781 6.054688 18.421875 C 6.308594 18.171875 6.652344 18.027344 7.007812 18.027344 C 7.367188 18.027344 7.710938 18.171875 7.964844 18.421875 C 8.214844 18.675781 8.359375 19.019531 8.359375 19.378906 L 8.359375 24.980469 C 8.359375 25.339844 8.214844 25.683594 7.964844 25.9375 C 7.710938 26.1875 7.367188 26.332031 7.007812 26.332031 Z M 7.007812 26.332031 " clip-rule="nonzero"/></clipPath><clipPath id="48d681e8da"><path d="M 0.660156 0.0234375 L 3.359375 0.0234375 L 3.359375 8.332031 L 0.660156 8.332031 Z M 0.660156 0.0234375 " clip-rule="nonzero"/></clipPath><clipPath id="4a62a657db"><path d="M 2.007812 8.332031 C 1.652344 8.332031 1.308594 8.1875 1.054688 7.9375 C 0.800781 7.683594 0.660156 7.339844 0.660156 6.980469 L 0.660156 1.378906 C 0.660156 1.019531 0.800781 0.675781 1.054688 0.421875 C 1.308594 0.171875 1.652344 0.0273438 2.007812 0.0273438 C 2.367188 0.0273438 2.710938 0.171875 2.964844 0.421875 C 3.214844 0.675781 3.359375 1.019531 3.359375 1.378906 L 3.359375 6.980469 C 3.359375 7.339844 3.214844 7.683594 2.964844 7.9375 C 2.710938 8.1875 2.367188 8.332031 2.007812 8.332031 Z M 2.007812 8.332031 " clip-rule="nonzero"/></clipPath><clipPath id="3afbd87039"><rect x="0" width="4" y="0" height="9"/></clipPath><clipPath id="791032f44e"><path d="M 10.527344 46.609375 L 13.226562 46.609375 L 13.226562 60.316406 L 10.527344 60.316406 Z M 10.527344 46.609375 " clip-rule="nonzero"/></clipPath><clipPath id="5ef83d0a06"><path d="M 11.878906 46.609375 C 12.234375 46.609375 12.578125 46.753906 12.832031 47.007812 C 13.085938 47.257812 13.226562 47.601562 13.226562 47.960938 L 13.226562 58.960938 C 13.226562 59.320312 13.085938 59.664062 12.832031 59.917969 C 12.578125 60.167969 12.234375 60.3125 11.878906 60.3125 C 11.519531 60.3125 11.175781 60.167969 10.921875 59.917969 C 10.671875 59.664062 10.527344 59.320312 10.527344 58.960938 L 10.527344 47.960938 C 10.527344 47.601562 10.671875 47.257812 10.921875 47.007812 C 11.175781 46.753906 11.519531 46.609375 11.878906 46.609375 Z M 11.878906 46.609375 " clip-rule="nonzero"/></clipPath><clipPath id="829d38b561"><path d="M 0.527344 0.609375 L 3.226562 0.609375 L 3.226562 14.316406 L 0.527344 14.316406 Z M 0.527344 0.609375 " clip-rule="nonzero"/></clipPath><clipPath id="6195aeaa3f"><path d="M 1.878906 0.609375 C 2.234375 0.609375 2.578125 0.753906 2.832031 1.007812 C 3.085938 1.257812 3.226562 1.601562 3.226562 1.960938 L 3.226562 12.960938 C 3.226562 13.320312 3.085938 13.664062 2.832031 13.917969 C 2.578125 14.167969 2.234375 14.3125 1.878906 14.3125 C 1.519531 14.3125 1.175781 14.167969 0.921875 13.917969 C 0.671875 13.664062 0.527344 13.320312 0.527344 12.960938 L 0.527344 1.960938 C 0.527344 1.601562 0.671875 1.257812 0.921875 1.007812 C 1.175781 0.753906 1.519531 0.609375 1.878906 0.609375 Z M 1.878906 0.609375 " clip-rule="nonzero"/></clipPath><clipPath id="ccb3ec059e"><rect x="0" width="4" y="0" height="15"/></clipPath><clipPath id="4d4c839134"><path d="M 15.136719 46.5 L 17.835938 46.5 L 17.835938 63.113281 L 15.136719 63.113281 Z M 15.136719 46.5 " clip-rule="nonzero"/></clipPath><clipPath id="f4c951c2f7"><path d="M 16.488281 46.5 C 16.84375 46.5 17.1875 46.640625 17.441406 46.894531 C 17.695312 47.148438 17.835938 47.492188 17.835938 47.847656 L 17.835938 61.757812 C 17.835938 62.113281 17.695312 62.457031 17.441406 62.710938 C 17.1875 62.964844 16.84375 63.105469 16.488281 63.105469 C 16.128906 63.105469 15.785156 62.964844 15.535156 62.710938 C 15.28125 62.457031 15.136719 62.113281 15.136719 61.757812 L 15.136719 47.847656 C 15.136719 47.492188 15.28125 47.148438 15.535156 46.894531 C 15.785156 46.640625 16.128906 46.5 16.488281 46.5 Z M 16.488281 46.5 " clip-rule="nonzero"/></clipPath><clipPath id="beeda58bb8"><path d="M 0.136719 0.5 L 2.835938 0.5 L 2.835938 17.113281 L 0.136719 17.113281 Z M 0.136719 0.5 " clip-rule="nonzero"/></clipPath><clipPath id="c4de08b7fa"><path d="M 1.488281 0.5 C 1.84375 0.5 2.1875 0.640625 2.441406 0.894531 C 2.695312 1.148438 2.835938 1.492188 2.835938 1.847656 L 2.835938 15.757812 C 2.835938 16.113281 2.695312 16.457031 2.441406 16.710938 C 2.1875 16.964844 1.84375 17.105469 1.488281 17.105469 C 1.128906 17.105469 0.785156 16.964844 0.535156 16.710938 C 0.28125 16.457031 0.136719 16.113281 0.136719 15.757812 L 0.136719 1.847656 C 0.136719 1.492188 0.28125 1.148438 0.535156 0.894531 C 0.785156 0.640625 1.128906 0.5 1.488281 0.5 Z M 1.488281 0.5 " clip-rule="nonzero"/></clipPath><clipPath id="d8c24793fe"><rect x="0" width="3" y="0" height="18"/></clipPath><clipPath id="083fe5d072"><path d="M 19.746094 48.367188 L 22.445312 48.367188 L 22.445312 66.226562 L 19.746094 66.226562 Z M 19.746094 48.367188 " clip-rule="nonzero"/></clipPath><clipPath id="bce396f489"><path d="M 21.097656 48.367188 C 21.457031 48.367188 21.796875 48.507812 22.050781 48.761719 C 22.304688 49.015625 22.445312 49.359375 22.445312 49.714844 L 22.445312 64.871094 C 22.445312 65.230469 22.304688 65.570312 22.050781 65.824219 C 21.796875 66.078125 21.457031 66.21875 21.097656 66.21875 C 20.738281 66.21875 20.394531 66.078125 20.144531 65.824219 C 19.890625 65.570312 19.746094 65.230469 19.746094 64.871094 L 19.746094 49.714844 C 19.746094 49.359375 19.890625 49.015625 20.144531 48.761719 C 20.394531 48.507812 20.738281 48.367188 21.097656 48.367188 Z M 21.097656 48.367188 " clip-rule="nonzero"/></clipPath><clipPath id="c2f1f5b4a7"><path d="M 0.746094 0.367188 L 3.445312 0.367188 L 3.445312 18.226562 L 0.746094 18.226562 Z M 0.746094 0.367188 " clip-rule="nonzero"/></clipPath><clipPath id="6788b3efdc"><path d="M 2.097656 0.367188 C 2.457031 0.367188 2.796875 0.507812 3.050781 0.761719 C 3.304688 1.015625 3.445312 1.359375 3.445312 1.714844 L 3.445312 16.871094 C 3.445312 17.230469 3.304688 17.570312 3.050781 17.824219 C 2.796875 18.078125 2.457031 18.21875 2.097656 18.21875 C 1.738281 18.21875 1.394531 18.078125 1.144531 17.824219 C 0.890625 17.570312 0.746094 17.230469 0.746094 16.871094 L 0.746094 1.714844 C 0.746094 1.359375 0.890625 1.015625 1.144531 0.761719 C 1.394531 0.507812 1.738281 0.367188 2.097656 0.367188 Z M 2.097656 0.367188 " clip-rule="nonzero"/></clipPath><clipPath id="33ed939a39"><rect x="0" width="4" y="0" height="19"/></clipPath><clipPath id="2acdd981fa"><path d="M 5.753906 48.15625 L 8.453125 48.15625 L 8.453125 56.464844 L 5.753906 56.464844 Z M 5.753906 48.15625 " clip-rule="nonzero"/></clipPath><clipPath id="6a23066ae5"><path d="M 7.101562 56.464844 C 6.746094 56.464844 6.402344 56.320312 6.148438 56.066406 C 5.894531 55.816406 5.753906 55.472656 5.753906 55.113281 L 5.753906 49.507812 C 5.753906 49.152344 5.894531 48.808594 6.148438 48.554688 C 6.402344 48.300781 6.746094 48.160156 7.101562 48.160156 C 7.460938 48.160156 7.804688 48.300781 8.058594 48.554688 C 8.308594 48.808594 8.453125 49.152344 8.453125 49.507812 L 8.453125 55.113281 C 8.453125 55.472656 8.308594 55.816406 8.058594 56.066406 C 7.804688 56.320312 7.460938 56.464844 7.101562 56.464844 Z M 7.101562 56.464844 " clip-rule="nonzero"/></clipPath><clipPath id="ed0d851e5f"><path d="M 0.753906 0.15625 L 3.453125 0.15625 L 3.453125 8.464844 L 0.753906 8.464844 Z M 0.753906 0.15625 " clip-rule="nonzero"/></clipPath><clipPath id="b2ce2f3acc"><path d="M 2.101562 8.464844 C 1.746094 8.464844 1.402344 8.320312 1.148438 8.066406 C 0.894531 7.816406 0.753906 7.472656 0.753906 7.113281 L 0.753906 1.507812 C 0.753906 1.152344 0.894531 0.808594 1.148438 0.554688 C 1.402344 0.300781 1.746094 0.160156 2.101562 0.160156 C 2.460938 0.160156 2.804688 0.300781 3.058594 0.554688 C 3.308594 0.808594 3.453125 1.152344 3.453125 1.507812 L 3.453125 7.113281 C 3.453125 7.472656 3.308594 7.816406 3.058594 8.066406 C 2.804688 8.320312 2.460938 8.464844 2.101562 8.464844 Z M 2.101562 8.464844 " clip-rule="nonzero"/></clipPath><clipPath id="cadc10d67c"><rect x="0" width="4" y="0" height="9"/></clipPath><clipPath id="5ac7c03b30"><path d="M 0.980469 51.058594 L 3.679688 51.058594 L 3.679688 54.800781 L 0.980469 54.800781 Z M 0.980469 51.058594 " clip-rule="nonzero"/></clipPath><clipPath id="2b9b1b1b13"><path d="M 2.328125 54.800781 C 1.96875 54.800781 1.628906 54.660156 1.375 54.40625 C 1.121094 54.15625 0.980469 53.8125 0.980469 53.453125 L 0.980469 52.414062 C 0.980469 52.058594 1.121094 51.714844 1.375 51.460938 C 1.628906 51.207031 1.96875 51.066406 2.328125 51.066406 C 2.6875 51.066406 3.03125 51.207031 3.28125 51.460938 C 3.535156 51.714844 3.679688 52.058594 3.679688 52.414062 L 3.679688 53.453125 C 3.679688 53.8125 3.535156 54.15625 3.28125 54.40625 C 3.03125 54.660156 2.6875 54.800781 2.328125 54.800781 Z M 2.328125 54.800781 " clip-rule="nonzero"/></clipPath><clipPath id="29f2b572d5"><path d="M 0.980469 0.0585938 L 3.679688 0.0585938 L 3.679688 3.800781 L 0.980469 3.800781 Z M 0.980469 0.0585938 " clip-rule="nonzero"/></clipPath><clipPath id="a5766ce7c0"><path d="M 2.328125 3.800781 C 1.96875 3.800781 1.628906 3.660156 1.375 3.40625 C 1.121094 3.15625 0.980469 2.8125 0.980469 2.453125 L 0.980469 1.414062 C 0.980469 1.058594 1.121094 0.714844 1.375 0.460938 C 1.628906 0.207031 1.96875 0.0664062 2.328125 0.0664062 C 2.6875 0.0664062 3.03125 0.207031 3.28125 0.460938 C 3.535156 0.714844 3.679688 1.058594 3.679688 1.414062 L 3.679688 2.453125 C 3.679688 2.8125 3.535156 3.15625 3.28125 3.40625 C 3.03125 3.660156 2.6875 3.800781 2.328125 3.800781 Z M 2.328125 3.800781 " clip-rule="nonzero"/></clipPath><clipPath id="2c3de642c0"><rect x="0" width="4" y="0" height="4"/></clipPath><clipPath id="bc9b6ecfa4"><path d="M 29.308594 29.476562 L 32.007812 29.476562 L 32.007812 66.847656 L 29.308594 66.847656 Z M 29.308594 29.476562 " clip-rule="nonzero"/></clipPath><clipPath id="174b48860d"><path d="M 30.65625 29.476562 C 31.015625 29.476562 31.359375 29.617188 31.613281 29.871094 C 31.863281 30.125 32.007812 30.46875 32.007812 30.824219 L 32.007812 65.492188 C 32.007812 65.851562 31.863281 66.195312 31.613281 66.449219 C 31.359375 66.699219 31.015625 66.84375 30.65625 66.84375 C 30.300781 66.84375 29.957031 66.699219 29.703125 66.449219 C 29.449219 66.195312 29.308594 65.851562 29.308594 65.492188 L 29.308594 30.824219 C 29.308594 30.46875 29.449219 30.125 29.703125 29.871094 C 29.957031 29.617188 30.300781 29.476562 30.65625 29.476562 Z M 30.65625 29.476562 " clip-rule="nonzero"/></clipPath><clipPath id="0123b6606b"><path d="M 0.308594 0.476562 L 3.007812 0.476562 L 3.007812 37.847656 L 0.308594 37.847656 Z M 0.308594 0.476562 " clip-rule="nonzero"/></clipPath><clipPath id="9d855aad3a"><path d="M 1.65625 0.476562 C 2.015625 0.476562 2.359375 0.617188 2.613281 0.871094 C 2.863281 1.125 3.007812 1.46875 3.007812 1.824219 L 3.007812 36.492188 C 3.007812 36.851562 2.863281 37.195312 2.613281 37.449219 C 2.359375 37.699219 2.015625 37.84375 1.65625 37.84375 C 1.300781 37.84375 0.957031 37.699219 0.703125 37.449219 C 0.449219 37.195312 0.308594 36.851562 0.308594 36.492188 L 0.308594 1.824219 C 0.308594 1.46875 0.449219 1.125 0.703125 0.871094 C 0.957031 0.617188 1.300781 0.476562 1.65625 0.476562 Z M 1.65625 0.476562 " clip-rule="nonzero"/></clipPath><clipPath id="c3981326f8"><rect x="0" width="4" y="0" height="38"/></clipPath><clipPath id="c2bb664e92"><path d="M 33.933594 33.441406 L 36.632812 33.441406 L 36.632812 62.503906 L 33.933594 62.503906 Z M 33.933594 33.441406 " clip-rule="nonzero"/></clipPath><clipPath id="e38682eab2"><path d="M 35.28125 33.441406 C 35.640625 33.441406 35.984375 33.585938 36.234375 33.835938 C 36.488281 34.089844 36.632812 34.433594 36.632812 34.792969 L 36.632812 61.15625 C 36.632812 61.511719 36.488281 61.855469 36.234375 62.109375 C 35.984375 62.363281 35.640625 62.503906 35.28125 62.503906 C 34.925781 62.503906 34.582031 62.363281 34.328125 62.109375 C 34.074219 61.855469 33.933594 61.511719 33.933594 61.15625 L 33.933594 34.792969 C 33.933594 34.433594 34.074219 34.089844 34.328125 33.835938 C 34.582031 33.585938 34.925781 33.441406 35.28125 33.441406 Z M 35.28125 33.441406 " clip-rule="nonzero"/></clipPath><clipPath id="0df3abd9b7"><path d="M 0.933594 0.441406 L 3.632812 0.441406 L 3.632812 29.503906 L 0.933594 29.503906 Z M 0.933594 0.441406 " clip-rule="nonzero"/></clipPath><clipPath id="8b3c8bbd75"><path d="M 2.28125 0.441406 C 2.640625 0.441406 2.984375 0.585938 3.234375 0.835938 C 3.488281 1.089844 3.632812 1.433594 3.632812 1.792969 L 3.632812 28.15625 C 3.632812 28.511719 3.488281 28.855469 3.234375 29.109375 C 2.984375 29.363281 2.640625 29.503906 2.28125 29.503906 C 1.925781 29.503906 1.582031 29.363281 1.328125 29.109375 C 1.074219 28.855469 0.933594 28.511719 0.933594 28.15625 L 0.933594 1.792969 C 0.933594 1.433594 1.074219 1.089844 1.328125 0.835938 C 1.582031 0.585938 1.925781 0.441406 2.28125 0.441406 Z M 2.28125 0.441406 " clip-rule="nonzero"/></clipPath><clipPath id="2e4f11df0e"><rect x="0" width="4" y="0" height="30"/></clipPath><clipPath id="b40a16c621"><path d="M 38.527344 37.78125 L 41.226562 37.78125 L 41.226562 58.546875 L 38.527344 58.546875 Z M 38.527344 37.78125 " clip-rule="nonzero"/></clipPath><clipPath id="4d692ddb64"><path d="M 39.878906 37.78125 C 40.234375 37.78125 40.578125 37.921875 40.832031 38.175781 C 41.085938 38.429688 41.226562 38.773438 41.226562 39.128906 L 41.226562 57.191406 C 41.226562 57.546875 41.085938 57.890625 40.832031 58.144531 C 40.578125 58.398438 40.234375 58.539062 39.878906 58.539062 C 39.519531 58.539062 39.175781 58.398438 38.921875 58.144531 C 38.671875 57.890625 38.527344 57.546875 38.527344 57.191406 L 38.527344 39.128906 C 38.527344 38.773438 38.671875 38.429688 38.921875 38.175781 C 39.175781 37.921875 39.519531 37.78125 39.878906 37.78125 Z M 39.878906 37.78125 " clip-rule="nonzero"/></clipPath><clipPath id="80225d5bfc"><path d="M 0.527344 0.78125 L 3.226562 0.78125 L 3.226562 21.546875 L 0.527344 21.546875 Z M 0.527344 0.78125 " clip-rule="nonzero"/></clipPath><clipPath id="a5aece08f1"><path d="M 1.878906 0.78125 C 2.234375 0.78125 2.578125 0.921875 2.832031 1.175781 C 3.085938 1.429688 3.226562 1.773438 3.226562 2.128906 L 3.226562 20.191406 C 3.226562 20.546875 3.085938 20.890625 2.832031 21.144531 C 2.578125 21.398438 2.234375 21.539062 1.878906 21.539062 C 1.519531 21.539062 1.175781 21.398438 0.921875 21.144531 C 0.671875 20.890625 0.527344 20.546875 0.527344 20.191406 L 0.527344 2.128906 C 0.527344 1.773438 0.671875 1.429688 0.921875 1.175781 C 1.175781 0.921875 1.519531 0.78125 1.878906 0.78125 Z M 1.878906 0.78125 " clip-rule="nonzero"/></clipPath><clipPath id="09c0891c73"><rect x="0" width="4" y="0" height="22"/></clipPath><clipPath id="c24f2a88b4"><path d="M 43.398438 43.46875 L 46.09375 43.46875 L 46.09375 51.773438 L 43.398438 51.773438 Z M 43.398438 43.46875 " clip-rule="nonzero"/></clipPath><clipPath id="fe165fb411"><path d="M 44.746094 43.46875 C 45.105469 43.46875 45.449219 43.609375 45.699219 43.863281 C 45.953125 44.117188 46.09375 44.457031 46.09375 44.816406 L 46.09375 50.421875 C 46.09375 50.78125 45.953125 51.121094 45.699219 51.375 C 45.449219 51.628906 45.105469 51.769531 44.746094 51.769531 C 44.386719 51.769531 44.046875 51.628906 43.792969 51.375 C 43.539062 51.121094 43.398438 50.78125 43.398438 50.421875 L 43.398438 44.816406 C 43.398438 44.457031 43.539062 44.117188 43.792969 43.863281 C 44.046875 43.609375 44.386719 43.46875 44.746094 43.46875 Z M 44.746094 43.46875 " clip-rule="nonzero"/></clipPath><clipPath id="c7b153a0af"><path d="M 0.398438 0.46875 L 3.09375 0.46875 L 3.09375 8.773438 L 0.398438 8.773438 Z M 0.398438 0.46875 " clip-rule="nonzero"/></clipPath><clipPath id="bfd27586b0"><path d="M 1.746094 0.46875 C 2.105469 0.46875 2.449219 0.609375 2.699219 0.863281 C 2.953125 1.117188 3.09375 1.457031 3.09375 1.816406 L 3.09375 7.421875 C 3.09375 7.78125 2.953125 8.121094 2.699219 8.375 C 2.449219 8.628906 2.105469 8.769531 1.746094 8.769531 C 1.386719 8.769531 1.046875 8.628906 0.792969 8.375 C 0.539062 8.121094 0.398438 7.78125 0.398438 7.421875 L 0.398438 1.816406 C 0.398438 1.457031 0.539062 1.117188 0.792969 0.863281 C 1.046875 0.609375 1.386719 0.46875 1.746094 0.46875 Z M 1.746094 0.46875 " clip-rule="nonzero"/></clipPath><clipPath id="686d2794f2"><rect x="0" width="4" y="0" height="9"/></clipPath><clipPath id="515ddb7c5d"><path d="M 38.527344 9.484375 L 41.226562 9.484375 L 41.226562 23.1875 L 38.527344 23.1875 Z M 38.527344 9.484375 " clip-rule="nonzero"/></clipPath><clipPath id="b9ce414cf4"><path d="M 39.878906 23.1875 C 39.519531 23.1875 39.175781 23.046875 38.921875 22.792969 C 38.671875 22.539062 38.527344 22.195312 38.527344 21.839844 L 38.527344 10.835938 C 38.527344 10.480469 38.671875 10.136719 38.921875 9.882812 C 39.175781 9.628906 39.519531 9.488281 39.878906 9.488281 C 40.234375 9.488281 40.578125 9.628906 40.832031 9.882812 C 41.085938 10.136719 41.226562 10.480469 41.226562 10.835938 L 41.226562 21.839844 C 41.226562 22.195312 41.085938 22.539062 40.832031 22.792969 C 40.578125 23.046875 40.234375 23.1875 39.878906 23.1875 Z M 39.878906 23.1875 " clip-rule="nonzero"/></clipPath><clipPath id="36a17b72a1"><path d="M 0.527344 0.484375 L 3.226562 0.484375 L 3.226562 14.1875 L 0.527344 14.1875 Z M 0.527344 0.484375 " clip-rule="nonzero"/></clipPath><clipPath id="3e5e9575d1"><path d="M 1.878906 14.1875 C 1.519531 14.1875 1.175781 14.046875 0.921875 13.792969 C 0.671875 13.539062 0.527344 13.195312 0.527344 12.839844 L 0.527344 1.835938 C 0.527344 1.480469 0.671875 1.136719 0.921875 0.882812 C 1.175781 0.628906 1.519531 0.488281 1.878906 0.488281 C 2.234375 0.488281 2.578125 0.628906 2.832031 0.882812 C 3.085938 1.136719 3.226562 1.480469 3.226562 1.835938 L 3.226562 12.839844 C 3.226562 13.195312 3.085938 13.539062 2.832031 13.792969 C 2.578125 14.046875 2.234375 14.1875 1.878906 14.1875 Z M 1.878906 14.1875 " clip-rule="nonzero"/></clipPath><clipPath id="030e2bdcc2"><rect x="0" width="4" y="0" height="15"/></clipPath><clipPath id="7bb23ba908"><path d="M 33.917969 6.6875 L 36.617188 6.6875 L 36.617188 23.300781 L 33.917969 23.300781 Z M 33.917969 6.6875 " clip-rule="nonzero"/></clipPath><clipPath id="f41bbdfb95"><path d="M 35.269531 23.300781 C 34.910156 23.300781 34.566406 23.15625 34.3125 22.90625 C 34.058594 22.652344 33.917969 22.308594 33.917969 21.949219 L 33.917969 8.042969 C 33.917969 7.683594 34.058594 7.339844 34.3125 7.089844 C 34.566406 6.835938 34.910156 6.691406 35.269531 6.691406 C 35.625 6.691406 35.96875 6.835938 36.222656 7.089844 C 36.476562 7.339844 36.617188 7.683594 36.617188 8.042969 L 36.617188 21.949219 C 36.617188 22.308594 36.476562 22.652344 36.222656 22.90625 C 35.96875 23.15625 35.625 23.300781 35.269531 23.300781 Z M 35.269531 23.300781 " clip-rule="nonzero"/></clipPath><clipPath id="85ac13ab50"><path d="M 0.917969 0.6875 L 3.617188 0.6875 L 3.617188 17.300781 L 0.917969 17.300781 Z M 0.917969 0.6875 " clip-rule="nonzero"/></clipPath><clipPath id="25b0f8832b"><path d="M 2.269531 17.300781 C 1.910156 17.300781 1.566406 17.15625 1.3125 16.90625 C 1.058594 16.652344 0.917969 16.308594 0.917969 15.949219 L 0.917969 2.042969 C 0.917969 1.683594 1.058594 1.339844 1.3125 1.089844 C 1.566406 0.835938 1.910156 0.691406 2.269531 0.691406 C 2.625 0.691406 2.96875 0.835938 3.222656 1.089844 C 3.476562 1.339844 3.617188 1.683594 3.617188 2.042969 L 3.617188 15.949219 C 3.617188 16.308594 3.476562 16.652344 3.222656 16.90625 C 2.96875 17.15625 2.625 17.300781 2.269531 17.300781 Z M 2.269531 17.300781 " clip-rule="nonzero"/></clipPath><clipPath id="f0fe6ca8a4"><rect x="0" width="4" y="0" height="18"/></clipPath><clipPath id="c6494efe8e"><path d="M 29.308594 3.574219 L 32.007812 3.574219 L 32.007812 21.429688 L 29.308594 21.429688 Z M 29.308594 3.574219 " clip-rule="nonzero"/></clipPath><clipPath id="cfb0bce9ee"><path d="M 30.65625 21.429688 C 30.300781 21.429688 29.957031 21.289062 29.703125 21.035156 C 29.449219 20.785156 29.308594 20.441406 29.308594 20.082031 L 29.308594 4.929688 C 29.308594 4.570312 29.449219 4.226562 29.703125 3.972656 C 29.957031 3.722656 30.300781 3.578125 30.65625 3.578125 C 31.015625 3.578125 31.359375 3.722656 31.613281 3.972656 C 31.863281 4.226562 32.007812 4.570312 32.007812 4.929688 L 32.007812 20.082031 C 32.007812 20.441406 31.863281 20.785156 31.613281 21.035156 C 31.359375 21.289062 31.015625 21.429688 30.65625 21.429688 Z M 30.65625 21.429688 " clip-rule="nonzero"/></clipPath><clipPath id="805731af43"><path d="M 0.308594 0.574219 L 3.007812 0.574219 L 3.007812 18.429688 L 0.308594 18.429688 Z M 0.308594 0.574219 " clip-rule="nonzero"/></clipPath><clipPath id="16d4b0aba0"><path d="M 1.65625 18.429688 C 1.300781 18.429688 0.957031 18.289062 0.703125 18.035156 C 0.449219 17.785156 0.308594 17.441406 0.308594 17.082031 L 0.308594 1.929688 C 0.308594 1.570312 0.449219 1.226562 0.703125 0.972656 C 0.957031 0.722656 1.300781 0.578125 1.65625 0.578125 C 2.015625 0.578125 2.359375 0.722656 2.613281 0.972656 C 2.863281 1.226562 3.007812 1.570312 3.007812 1.929688 L 3.007812 17.082031 C 3.007812 17.441406 2.863281 17.785156 2.613281 18.035156 C 2.359375 18.289062 2.015625 18.429688 1.65625 18.429688 Z M 1.65625 18.429688 " clip-rule="nonzero"/></clipPath><clipPath id="86698ed3fa"><rect x="0" width="4" y="0" height="19"/></clipPath><clipPath id="df85e9e224"><path d="M 43.300781 13.335938 L 46 13.335938 L 46 21.640625 L 43.300781 21.640625 Z M 43.300781 13.335938 " clip-rule="nonzero"/></clipPath><clipPath id="85c7168d14"><path d="M 44.652344 13.335938 C 45.011719 13.335938 45.351562 13.476562 45.605469 13.730469 C 45.859375 13.984375 46 14.328125 46 14.683594 L 46 20.289062 C 46 20.648438 45.859375 20.992188 45.605469 21.242188 C 45.351562 21.496094 45.011719 21.640625 44.652344 21.640625 C 44.292969 21.640625 43.949219 21.496094 43.699219 21.242188 C 43.445312 20.992188 43.300781 20.648438 43.300781 20.289062 L 43.300781 14.683594 C 43.300781 14.328125 43.445312 13.984375 43.699219 13.730469 C 43.949219 13.476562 44.292969 13.335938 44.652344 13.335938 Z M 44.652344 13.335938 " clip-rule="nonzero"/></clipPath><clipPath id="b975cbc985"><path d="M 0.300781 0.335938 L 3 0.335938 L 3 8.640625 L 0.300781 8.640625 Z M 0.300781 0.335938 " clip-rule="nonzero"/></clipPath><clipPath id="69d76c77e6"><path d="M 1.652344 0.335938 C 2.011719 0.335938 2.351562 0.476562 2.605469 0.730469 C 2.859375 0.984375 3 1.328125 3 1.683594 L 3 7.289062 C 3 7.648438 2.859375 7.992188 2.605469 8.242188 C 2.351562 8.496094 2.011719 8.640625 1.652344 8.640625 C 1.292969 8.640625 0.949219 8.496094 0.699219 8.242188 C 0.445312 7.992188 0.300781 7.648438 0.300781 7.289062 L 0.300781 1.683594 C 0.300781 1.328125 0.445312 0.984375 0.699219 0.730469 C 0.949219 0.476562 1.292969 0.335938 1.652344 0.335938 Z M 1.652344 0.335938 " clip-rule="nonzero"/></clipPath><clipPath id="fc6f0e384d"><rect x="0" width="3" y="0" height="9"/></clipPath><clipPath id="567fc8826f"><path d="M 48.078125 14.996094 L 50.777344 14.996094 L 50.777344 18.738281 L 48.078125 18.738281 Z M 48.078125 14.996094 " clip-rule="nonzero"/></clipPath><clipPath id="f6291f0a4c"><path d="M 49.425781 14.996094 C 49.785156 14.996094 50.128906 15.136719 50.378906 15.390625 C 50.632812 15.644531 50.777344 15.988281 50.777344 16.34375 L 50.777344 17.382812 C 50.777344 17.742188 50.632812 18.085938 50.378906 18.335938 C 50.128906 18.589844 49.785156 18.734375 49.425781 18.734375 C 49.070312 18.734375 48.726562 18.589844 48.472656 18.335938 C 48.21875 18.085938 48.078125 17.742188 48.078125 17.382812 L 48.078125 16.34375 C 48.078125 15.988281 48.21875 15.644531 48.472656 15.390625 C 48.726562 15.136719 49.070312 14.996094 49.425781 14.996094 Z M 49.425781 14.996094 " clip-rule="nonzero"/></clipPath><clipPath id="f177b96ad7"><path d="M 0.078125 0.996094 L 2.777344 0.996094 L 2.777344 4.738281 L 0.078125 4.738281 Z M 0.078125 0.996094 " clip-rule="nonzero"/></clipPath><clipPath id="c5519c346f"><path d="M 1.425781 0.996094 C 1.785156 0.996094 2.128906 1.136719 2.378906 1.390625 C 2.632812 1.644531 2.777344 1.988281 2.777344 2.34375 L 2.777344 3.382812 C 2.777344 3.742188 2.632812 4.085938 2.378906 4.335938 C 2.128906 4.589844 1.785156 4.734375 1.425781 4.734375 C 1.070312 4.734375 0.726562 4.589844 0.472656 4.335938 C 0.21875 4.085938 0.078125 3.742188 0.078125 3.382812 L 0.078125 2.34375 C 0.078125 1.988281 0.21875 1.644531 0.472656 1.390625 C 0.726562 1.136719 1.070312 0.996094 1.425781 0.996094 Z M 1.425781 0.996094 " clip-rule="nonzero"/></clipPath><clipPath id="841155e6f9"><rect x="0" width="3" y="0" height="5"/></clipPath><clipPath id="81b80f606b"><path d="M 24.527344 49.199219 L 27.226562 49.199219 L 27.226562 68.722656 L 24.527344 68.722656 Z M 24.527344 49.199219 " clip-rule="nonzero"/></clipPath><clipPath id="5f0c41dd84"><path d="M 25.878906 49.199219 C 26.234375 49.199219 26.578125 49.339844 26.832031 49.59375 C 27.085938 49.847656 27.226562 50.1875 27.226562 50.546875 L 27.226562 67.363281 C 27.226562 67.71875 27.085938 68.0625 26.832031 68.316406 C 26.578125 68.570312 26.234375 68.710938 25.878906 68.710938 C 25.519531 68.710938 25.175781 68.570312 24.921875 68.316406 C 24.671875 68.0625 24.527344 67.71875 24.527344 67.363281 L 24.527344 50.546875 C 24.527344 50.1875 24.671875 49.847656 24.921875 49.59375 C 25.175781 49.339844 25.519531 49.199219 25.878906 49.199219 Z M 25.878906 49.199219 " clip-rule="nonzero"/></clipPath><clipPath id="431638179a"><path d="M 0.527344 0.199219 L 3.226562 0.199219 L 3.226562 19.722656 L 0.527344 19.722656 Z M 0.527344 0.199219 " clip-rule="nonzero"/></clipPath><clipPath id="24aef23077"><path d="M 1.878906 0.199219 C 2.234375 0.199219 2.578125 0.339844 2.832031 0.59375 C 3.085938 0.847656 3.226562 1.1875 3.226562 1.546875 L 3.226562 18.363281 C 3.226562 18.71875 3.085938 19.0625 2.832031 19.316406 C 2.578125 19.570312 2.234375 19.710938 1.878906 19.710938 C 1.519531 19.710938 1.175781 19.570312 0.921875 19.316406 C 0.671875 19.0625 0.527344 18.71875 0.527344 18.363281 L 0.527344 1.546875 C 0.527344 1.1875 0.671875 0.847656 0.921875 0.59375 C 1.175781 0.339844 1.519531 0.199219 1.878906 0.199219 Z M 1.878906 0.199219 " clip-rule="nonzero"/></clipPath><clipPath id="c4f05658fa"><rect x="0" width="4" y="0" height="20"/></clipPath><clipPath id="fdc1ad64cc"><rect x="0" width="51" y="0" height="69"/></clipPath></defs><g transform="matrix(1, 0, 0, 1, 16, 6)"><g clip-path="url(#fdc1ad64cc)"><g clip-path="url(#10ecf8f677)"><g clip-path="url(#1fe0ae0a75)"><g transform="matrix(1, 0, 0, 1, 24, 0.000000000000007994)"><g clip-path="url(#c7ec99dff3)"><g clip-path="url(#d90ef0f219)"><g clip-path="url(#4953ae608a)"><path fill="#00cc40" d="M 0.535156 0.289062 L 3.234375 0.289062 L 3.234375 19.800781 L 0.535156 19.800781 Z M 0.535156 0.289062 " fill-opacity="1" fill-rule="nonzero"/></g></g></g></g></g></g><g clip-path="url(#d642f2dac9)"><g clip-path="url(#5c32dab1b2)"><g transform="matrix(1, 0, 0, 1, 24, 24)"><g clip-path="url(#34ab219f5a)"><g clip-path="url(#c8f6cd5738)"><g clip-path="url(#ed208d83be)"><path fill="#00cc40" d="M 0.535156 0.160156 L 3.234375 0.160156 L 3.234375 20.210938 L 0.535156 20.210938 Z M 0.535156 0.160156 " fill-opacity="1" fill-rule="nonzero"/></g></g></g></g></g></g><g clip-path="url(#5a29dee5ba)"><g clip-path="url(#a6710e5bc4)"><g transform="matrix(1, 0, 0, 1, 19, 2)"><g clip-path="url(#ccefab3717)"><g clip-path="url(#ac87afa2a3)"><g clip-path="url(#75c34ac0f3)"><path fill="#00cc40" d="M 3.445312 38.320312 L 0.746094 38.320312 L 0.746094 0.953125 L 3.445312 0.953125 Z M 3.445312 38.320312 " fill-opacity="1" fill-rule="nonzero"/></g></g></g></g></g></g><g clip-path="url(#b87461d9b0)"><g clip-path="url(#44571cc8a6)"><g transform="matrix(1, 0, 0, 1, 15, 7)"><g clip-path="url(#9d0e047070)"><g clip-path="url(#e29e116d4f)"><g clip-path="url(#52a03d753b)"><path fill="#00cc40" d="M 2.824219 29.355469 L 0.125 29.355469 L 0.125 0.292969 L 2.824219 0.292969 Z M 2.824219 29.355469 " fill-opacity="1" fill-rule="nonzero"/></g></g></g></g></g></g><g clip-path="url(#ba40745008)"><g clip-path="url(#c64a341795)"><g transform="matrix(1, 0, 0, 1, 10, 11)"><g clip-path="url(#c9ba2ff314)"><g clip-path="url(#90798fdbc8)"><g clip-path="url(#e4e39ab566)"><path fill="#00cc40" d="M 3.226562 21.019531 L 0.527344 21.019531 L 0.527344 0.261719 L 3.226562 0.261719 Z M 3.226562 21.019531 " fill-opacity="1" fill-rule="nonzero"/></g></g></g></g></g></g><g clip-path="url(#dcbb57c481)"><g clip-path="url(#b24a6aadcd)"><g transform="matrix(1, 0, 0, 1, 5, 18)"><g clip-path="url(#3afbd87039)"><g clip-path="url(#48d681e8da)"><g clip-path="url(#4a62a657db)"><path fill="#00cc40" d="M 3.359375 8.332031 L 0.660156 8.332031 L 0.660156 0.0234375 L 3.359375 0.0234375 Z M 3.359375 8.332031 " fill-opacity="1" fill-rule="nonzero"/></g></g></g></g></g></g><g clip-path="url(#791032f44e)"><g clip-path="url(#5ef83d0a06)"><g transform="matrix(1, 0, 0, 1, 10, 46)"><g clip-path="url(#ccb3ec059e)"><g clip-path="url(#829d38b561)"><g clip-path="url(#6195aeaa3f)"><path fill="#00cc40" d="M 0.527344 0.609375 L 3.226562 0.609375 L 3.226562 14.316406 L 0.527344 14.316406 Z M 0.527344 0.609375 " fill-opacity="1" fill-rule="nonzero"/></g></g></g></g></g></g><g clip-path="url(#4d4c839134)"><g clip-path="url(#f4c951c2f7)"><g transform="matrix(1, 0, 0, 1, 15, 46)"><g clip-path="url(#d8c24793fe)"><g clip-path="url(#beeda58bb8)"><g clip-path="url(#c4de08b7fa)"><path fill="#00cc40" d="M 0.136719 0.5 L 2.835938 0.5 L 2.835938 17.101562 L 0.136719 17.101562 Z M 0.136719 0.5 " fill-opacity="1" fill-rule="nonzero"/></g></g></g></g></g></g><g clip-path="url(#083fe5d072)"><g clip-path="url(#bce396f489)"><g transform="matrix(1, 0, 0, 1, 19, 48)"><g clip-path="url(#33ed939a39)"><g clip-path="url(#c2f1f5b4a7)"><g clip-path="url(#6788b3efdc)"><path fill="#00cc40" d="M 0.746094 0.367188 L 3.445312 0.367188 L 3.445312 18.226562 L 0.746094 18.226562 Z M 0.746094 0.367188 " fill-opacity="1" fill-rule="nonzero"/></g></g></g></g></g></g><g clip-path="url(#2acdd981fa)"><g clip-path="url(#6a23066ae5)"><g transform="matrix(1, 0, 0, 1, 5, 48)"><g clip-path="url(#cadc10d67c)"><g clip-path="url(#ed0d851e5f)"><g clip-path="url(#b2ce2f3acc)"><path fill="#00cc40" d="M 3.453125 8.464844 L 0.753906 8.464844 L 0.753906 0.15625 L 3.453125 0.15625 Z M 3.453125 8.464844 " fill-opacity="1" fill-rule="nonzero"/></g></g></g></g></g></g><g clip-path="url(#5ac7c03b30)"><g clip-path="url(#2b9b1b1b13)"><g transform="matrix(1, 0, 0, 1, -0.000000000000003553, 51)"><g clip-path="url(#2c3de642c0)"><g clip-path="url(#29f2b572d5)"><g clip-path="url(#a5766ce7c0)"><path fill="#00cc40" d="M 3.679688 3.800781 L 0.980469 3.800781 L 0.980469 0.0703125 L 3.679688 0.0703125 Z M 3.679688 3.800781 " fill-opacity="1" fill-rule="nonzero"/></g></g></g></g></g></g><g clip-path="url(#bc9b6ecfa4)"><g clip-path="url(#174b48860d)"><g transform="matrix(1, 0, 0, 1, 29, 29)"><g clip-path="url(#c3981326f8)"><g clip-path="url(#0123b6606b)"><g clip-path="url(#9d855aad3a)"><path fill="#00cc40" d="M 0.308594 0.476562 L 3.007812 0.476562 L 3.007812 37.847656 L 0.308594 37.847656 Z M 0.308594 0.476562 " fill-opacity="1" fill-rule="nonzero"/></g></g></g></g></g></g><g clip-path="url(#c2bb664e92)"><g clip-path="url(#e38682eab2)"><g transform="matrix(1, 0, 0, 1, 33, 33)"><g clip-path="url(#2e4f11df0e)"><g clip-path="url(#0df3abd9b7)"><g clip-path="url(#8b3c8bbd75)"><path fill="#00cc40" d="M 0.933594 0.441406 L 3.632812 0.441406 L 3.632812 29.503906 L 0.933594 29.503906 Z M 0.933594 0.441406 " fill-opacity="1" fill-rule="nonzero"/></g></g></g></g></g></g><g clip-path="url(#b40a16c621)"><g clip-path="url(#4d692ddb64)"><g transform="matrix(1, 0, 0, 1, 38, 37)"><g clip-path="url(#09c0891c73)"><g clip-path="url(#80225d5bfc)"><g clip-path="url(#a5aece08f1)"><path fill="#00cc40" d="M 0.527344 0.78125 L 3.226562 0.78125 L 3.226562 21.535156 L 0.527344 21.535156 Z M 0.527344 0.78125 " fill-opacity="1" fill-rule="nonzero"/></g></g></g></g></g></g><g clip-path="url(#c24f2a88b4)"><g clip-path="url(#fe165fb411)"><g transform="matrix(1, 0, 0, 1, 43, 43)"><g clip-path="url(#686d2794f2)"><g clip-path="url(#c7b153a0af)"><g clip-path="url(#bfd27586b0)"><path fill="#00cc40" d="M 0.398438 0.46875 L 3.09375 0.46875 L 3.09375 8.773438 L 0.398438 8.773438 Z M 0.398438 0.46875 " fill-opacity="1" fill-rule="nonzero"/></g></g></g></g></g></g><g clip-path="url(#515ddb7c5d)"><g clip-path="url(#b9ce414cf4)"><g transform="matrix(1, 0, 0, 1, 38, 9)"><g clip-path="url(#030e2bdcc2)"><g clip-path="url(#36a17b72a1)"><g clip-path="url(#3e5e9575d1)"><path fill="#00cc40" d="M 3.226562 14.1875 L 0.527344 14.1875 L 0.527344 0.484375 L 3.226562 0.484375 Z M 3.226562 14.1875 " fill-opacity="1" fill-rule="nonzero"/></g></g></g></g></g></g><g clip-path="url(#7bb23ba908)"><g clip-path="url(#f41bbdfb95)"><g transform="matrix(1, 0, 0, 1, 33, 6)"><g clip-path="url(#f0fe6ca8a4)"><g clip-path="url(#85ac13ab50)"><g clip-path="url(#25b0f8832b)"><path fill="#00cc40" d="M 3.617188 17.300781 L 0.917969 17.300781 L 0.917969 0.695312 L 3.617188 0.695312 Z M 3.617188 17.300781 " fill-opacity="1" fill-rule="nonzero"/></g></g></g></g></g></g><g clip-path="url(#c6494efe8e)"><g clip-path="url(#cfb0bce9ee)"><g transform="matrix(1, 0, 0, 1, 29, 3)"><g clip-path="url(#86698ed3fa)"><g clip-path="url(#805731af43)"><g clip-path="url(#16d4b0aba0)"><path fill="#00cc40" d="M 3.007812 18.429688 L 0.308594 18.429688 L 0.308594 0.574219 L 3.007812 0.574219 Z M 3.007812 18.429688 " fill-opacity="1" fill-rule="nonzero"/></g></g></g></g></g></g><g clip-path="url(#df85e9e224)"><g clip-path="url(#85c7168d14)"><g transform="matrix(1, 0, 0, 1, 43, 13)"><g clip-path="url(#fc6f0e384d)"><g clip-path="url(#b975cbc985)"><g clip-path="url(#69d76c77e6)"><path fill="#00cc40" d="M 0.300781 0.335938 L 3 0.335938 L 3 8.640625 L 0.300781 8.640625 Z M 0.300781 0.335938 " fill-opacity="1" fill-rule="nonzero"/></g></g></g></g></g></g><g clip-path="url(#567fc8826f)"><g clip-path="url(#f6291f0a4c)"><g transform="matrix(1, 0, 0, 1, 48, 14)"><g clip-path="url(#841155e6f9)"><g clip-path="url(#f177b96ad7)"><g clip-path="url(#c5519c346f)"><path fill="#00cc40" d="M 0.078125 0.996094 L 2.777344 0.996094 L 2.777344 4.726562 L 0.078125 4.726562 Z M 0.078125 0.996094 " fill-opacity="1" fill-rule="nonzero"/></g></g></g></g></g></g><g clip-path="url(#81b80f606b)"><g clip-path="url(#5f0c41dd84)"><g transform="matrix(1, 0, 0, 1, 24, 49)"><g clip-path="url(#c4f05658fa)"><g clip-path="url(#431638179a)"><g clip-path="url(#24aef23077)"><path fill="#00cc40" d="M 0.527344 0.199219 L 3.226562 0.199219 L 3.226562 19.710938 L 0.527344 19.710938 Z M 0.527344 0.199219 " fill-opacity="1" fill-rule="nonzero"/></g></g></g></g></g></g></g></g></svg>