<svg xmlns="http://www.w3.org/2000/svg" xmlns:xlink="http://www.w3.org/1999/xlink" width="108" zoomAndPan="magnify" viewBox="0 0 81 52.499999" height="70" preserveAspectRatio="xMidYMid meet" version="1.0"><defs><g/><clipPath id="f2076fba2f"><path d="M 8.890625 0.667969 L 9.863281 0.667969 L 9.863281 7.707031 L 8.890625 7.707031 Z M 8.890625 0.667969 " clip-rule="nonzero"/></clipPath><clipPath id="f7e1baa7f2"><path d="M 9.375 0.667969 C 9.503906 0.667969 9.628906 0.71875 9.722656 0.808594 C 9.8125 0.898438 9.863281 1.023438 9.863281 1.152344 L 9.863281 7.214844 C 9.863281 7.34375 9.8125 7.46875 9.722656 7.558594 C 9.628906 7.652344 9.503906 7.703125 9.375 7.703125 C 9.246094 7.703125 9.125 7.652344 9.03125 7.558594 C 8.941406 7.46875 8.890625 7.34375 8.890625 7.214844 L 8.890625 1.152344 C 8.890625 1.023438 8.941406 0.898438 9.03125 0.808594 C 9.125 0.71875 9.246094 0.667969 9.375 0.667969 Z M 9.375 0.667969 " clip-rule="nonzero"/></clipPath><clipPath id="e6f66e856a"><path d="M 0.890625 0.667969 L 1.863281 0.667969 L 1.863281 7.707031 L 0.890625 7.707031 Z M 0.890625 0.667969 " clip-rule="nonzero"/></clipPath><clipPath id="bf6b824803"><path d="M 1.375 0.667969 C 1.503906 0.667969 1.628906 0.71875 1.722656 0.808594 C 1.8125 0.898438 1.863281 1.023438 1.863281 1.152344 L 1.863281 7.214844 C 1.863281 7.34375 1.8125 7.46875 1.722656 7.558594 C 1.628906 7.652344 1.503906 7.703125 1.375 7.703125 C 1.246094 7.703125 1.125 7.652344 1.03125 7.558594 C 0.941406 7.46875 0.890625 7.34375 0.890625 7.214844 L 0.890625 1.152344 C 0.890625 1.023438 0.941406 0.898438 1.03125 0.808594 C 1.125 0.71875 1.246094 0.667969 1.375 0.667969 Z M 1.375 0.667969 " clip-rule="nonzero"/></clipPath><clipPath id="9d3395dc48"><rect x="0" width="2" y="0" height="8"/></clipPath><clipPath id="077d21d1de"><path d="M 8.890625 9.273438 L 9.863281 9.273438 L 9.863281 16.507812 L 8.890625 16.507812 Z M 8.890625 9.273438 " clip-rule="nonzero"/></clipPath><clipPath id="2c6580e919"><path d="M 9.375 9.273438 C 9.503906 9.273438 9.628906 9.324219 9.722656 9.417969 C 9.8125 9.507812 9.863281 9.632812 9.863281 9.761719 L 9.863281 16.019531 C 9.863281 16.148438 9.8125 16.273438 9.722656 16.363281 C 9.628906 16.453125 9.503906 16.503906 9.375 16.503906 C 9.246094 16.503906 9.125 16.453125 9.03125 16.363281 C 8.941406 16.273438 8.890625 16.148438 8.890625 16.019531 L 8.890625 9.761719 C 8.890625 9.632812 8.941406 9.507812 9.03125 9.417969 C 9.125 9.324219 9.246094 9.273438 9.375 9.273438 Z M 9.375 9.273438 " clip-rule="nonzero"/></clipPath><clipPath id="257033d439"><path d="M 0.890625 0.273438 L 1.863281 0.273438 L 1.863281 7.507812 L 0.890625 7.507812 Z M 0.890625 0.273438 " clip-rule="nonzero"/></clipPath><clipPath id="e2d3e96a3b"><path d="M 1.375 0.273438 C 1.503906 0.273438 1.628906 0.324219 1.722656 0.417969 C 1.8125 0.507812 1.863281 0.632812 1.863281 0.761719 L 1.863281 7.019531 C 1.863281 7.148438 1.8125 7.273438 1.722656 7.363281 C 1.628906 7.453125 1.503906 7.503906 1.375 7.503906 C 1.246094 7.503906 1.125 7.453125 1.03125 7.363281 C 0.941406 7.273438 0.890625 7.148438 0.890625 7.019531 L 0.890625 0.761719 C 0.890625 0.632812 0.941406 0.507812 1.03125 0.417969 C 1.125 0.324219 1.246094 0.273438 1.375 0.273438 Z M 1.375 0.273438 " clip-rule="nonzero"/></clipPath><clipPath id="532410bcd5"><rect x="0" width="2" y="0" height="8"/></clipPath><clipPath id="30c0379938"><path d="M 7.164062 1.625 L 8.136719 1.625 L 8.136719 15.101562 L 7.164062 15.101562 Z M 7.164062 1.625 " clip-rule="nonzero"/></clipPath><clipPath id="54099ff27d"><path d="M 7.652344 15.101562 C 7.523438 15.101562 7.398438 15.050781 7.308594 14.960938 C 7.214844 14.867188 7.164062 14.746094 7.164062 14.613281 L 7.164062 2.113281 C 7.164062 1.984375 7.214844 1.863281 7.308594 1.769531 C 7.398438 1.679688 7.523438 1.628906 7.652344 1.628906 C 7.78125 1.628906 7.902344 1.679688 7.996094 1.769531 C 8.085938 1.863281 8.136719 1.984375 8.136719 2.113281 L 8.136719 14.613281 C 8.136719 14.746094 8.085938 14.867188 7.996094 14.960938 C 7.902344 15.050781 7.78125 15.101562 7.652344 15.101562 Z M 7.652344 15.101562 " clip-rule="nonzero"/></clipPath><clipPath id="cec61abc39"><path d="M 0.164062 0.625 L 1.136719 0.625 L 1.136719 14.101562 L 0.164062 14.101562 Z M 0.164062 0.625 " clip-rule="nonzero"/></clipPath><clipPath id="2c43250c4d"><path d="M 0.652344 14.101562 C 0.523438 14.101562 0.398438 14.050781 0.308594 13.960938 C 0.214844 13.867188 0.164062 13.746094 0.164062 13.613281 L 0.164062 1.113281 C 0.164062 0.984375 0.214844 0.863281 0.308594 0.769531 C 0.398438 0.679688 0.523438 0.628906 0.652344 0.628906 C 0.78125 0.628906 0.902344 0.679688 0.996094 0.769531 C 1.085938 0.863281 1.136719 0.984375 1.136719 1.113281 L 1.136719 13.613281 C 1.136719 13.746094 1.085938 13.867188 0.996094 13.960938 C 0.902344 14.050781 0.78125 14.101562 0.652344 14.101562 Z M 0.652344 14.101562 " clip-rule="nonzero"/></clipPath><clipPath id="26fc06f63e"><rect x="0" width="2" y="0" height="15"/></clipPath><clipPath id="6b01e3ff49"><path d="M 5.496094 3.191406 L 6.46875 3.191406 L 6.46875 13.671875 L 5.496094 13.671875 Z M 5.496094 3.191406 " clip-rule="nonzero"/></clipPath><clipPath id="332dd6db9b"><path d="M 5.984375 13.671875 C 5.855469 13.671875 5.730469 13.621094 5.640625 13.53125 C 5.546875 13.4375 5.496094 13.316406 5.496094 13.183594 L 5.496094 3.679688 C 5.496094 3.550781 5.546875 3.425781 5.640625 3.335938 C 5.730469 3.242188 5.855469 3.191406 5.984375 3.191406 C 6.113281 3.191406 6.238281 3.242188 6.328125 3.335938 C 6.417969 3.425781 6.46875 3.550781 6.46875 3.679688 L 6.46875 13.183594 C 6.46875 13.316406 6.417969 13.4375 6.328125 13.53125 C 6.238281 13.621094 6.113281 13.671875 5.984375 13.671875 Z M 5.984375 13.671875 " clip-rule="nonzero"/></clipPath><clipPath id="7cb6278088"><path d="M 0.496094 0.191406 L 1.46875 0.191406 L 1.46875 10.671875 L 0.496094 10.671875 Z M 0.496094 0.191406 " clip-rule="nonzero"/></clipPath><clipPath id="115c7b7b01"><path d="M 0.984375 10.671875 C 0.855469 10.671875 0.730469 10.621094 0.640625 10.53125 C 0.546875 10.4375 0.496094 10.316406 0.496094 10.183594 L 0.496094 0.679688 C 0.496094 0.550781 0.546875 0.425781 0.640625 0.335938 C 0.730469 0.242188 0.855469 0.191406 0.984375 0.191406 C 1.113281 0.191406 1.238281 0.242188 1.328125 0.335938 C 1.417969 0.425781 1.46875 0.550781 1.46875 0.679688 L 1.46875 10.183594 C 1.46875 10.316406 1.417969 10.4375 1.328125 10.53125 C 1.238281 10.621094 1.113281 10.671875 0.984375 10.671875 Z M 0.984375 10.671875 " clip-rule="nonzero"/></clipPath><clipPath id="4a2b99e018"><rect x="0" width="2" y="0" height="11"/></clipPath><clipPath id="319ada75d6"><path d="M 3.839844 4.621094 L 4.8125 4.621094 L 4.8125 12.109375 L 3.839844 12.109375 Z M 3.839844 4.621094 " clip-rule="nonzero"/></clipPath><clipPath id="6882edb965"><path d="M 4.328125 12.109375 C 4.199219 12.109375 4.074219 12.054688 3.984375 11.964844 C 3.890625 11.875 3.839844 11.75 3.839844 11.621094 L 3.839844 5.109375 C 3.839844 4.980469 3.890625 4.855469 3.984375 4.765625 C 4.074219 4.671875 4.199219 4.621094 4.328125 4.621094 C 4.457031 4.621094 4.578125 4.671875 4.671875 4.765625 C 4.761719 4.855469 4.8125 4.980469 4.8125 5.109375 L 4.8125 11.621094 C 4.8125 11.75 4.761719 11.875 4.671875 11.964844 C 4.578125 12.054688 4.457031 12.109375 4.328125 12.109375 Z M 4.328125 12.109375 " clip-rule="nonzero"/></clipPath><clipPath id="26c40bcc93"><path d="M 0.839844 0.621094 L 1.8125 0.621094 L 1.8125 8.109375 L 0.839844 8.109375 Z M 0.839844 0.621094 " clip-rule="nonzero"/></clipPath><clipPath id="c8f284c209"><path d="M 1.328125 8.109375 C 1.199219 8.109375 1.074219 8.054688 0.984375 7.964844 C 0.890625 7.875 0.839844 7.75 0.839844 7.621094 L 0.839844 1.109375 C 0.839844 0.980469 0.890625 0.855469 0.984375 0.765625 C 1.074219 0.671875 1.199219 0.621094 1.328125 0.621094 C 1.457031 0.621094 1.578125 0.671875 1.671875 0.765625 C 1.761719 0.855469 1.8125 0.980469 1.8125 1.109375 L 1.8125 7.621094 C 1.8125 7.75 1.761719 7.875 1.671875 7.964844 C 1.578125 8.054688 1.457031 8.109375 1.328125 8.109375 Z M 1.328125 8.109375 " clip-rule="nonzero"/></clipPath><clipPath id="f99019d6f9"><rect x="0" width="2" y="0" height="9"/></clipPath><clipPath id="ca0cc39f12"><path d="M 2.085938 7.0625 L 3.058594 7.0625 L 3.058594 10.058594 L 2.085938 10.058594 Z M 2.085938 7.0625 " clip-rule="nonzero"/></clipPath><clipPath id="97c47274f9"><path d="M 2.570312 10.058594 C 2.441406 10.058594 2.316406 10.003906 2.226562 9.914062 C 2.136719 9.824219 2.085938 9.699219 2.085938 9.570312 L 2.085938 7.550781 C 2.085938 7.421875 2.136719 7.296875 2.226562 7.207031 C 2.316406 7.113281 2.441406 7.0625 2.570312 7.0625 C 2.699219 7.0625 2.824219 7.113281 2.914062 7.207031 C 3.007812 7.296875 3.058594 7.421875 3.058594 7.550781 L 3.058594 9.570312 C 3.058594 9.699219 3.007812 9.824219 2.914062 9.914062 C 2.824219 10.003906 2.699219 10.058594 2.570312 10.058594 Z M 2.570312 10.058594 " clip-rule="nonzero"/></clipPath><clipPath id="4e3121b238"><path d="M 0.0859375 0.0625 L 1.058594 0.0625 L 1.058594 3.058594 L 0.0859375 3.058594 Z M 0.0859375 0.0625 " clip-rule="nonzero"/></clipPath><clipPath id="83019ade9a"><path d="M 0.570312 3.058594 C 0.441406 3.058594 0.316406 3.003906 0.226562 2.914062 C 0.136719 2.824219 0.0859375 2.699219 0.0859375 2.570312 L 0.0859375 0.550781 C 0.0859375 0.421875 0.136719 0.296875 0.226562 0.207031 C 0.316406 0.113281 0.441406 0.0625 0.570312 0.0625 C 0.699219 0.0625 0.824219 0.113281 0.914062 0.207031 C 1.007812 0.296875 1.058594 0.421875 1.058594 0.550781 L 1.058594 2.570312 C 1.058594 2.699219 1.007812 2.824219 0.914062 2.914062 C 0.824219 3.003906 0.699219 3.058594 0.570312 3.058594 Z M 0.570312 3.058594 " clip-rule="nonzero"/></clipPath><clipPath id="5a91287a5e"><rect x="0" width="2" y="0" height="4"/></clipPath><clipPath id="4db7bcc11e"><path d="M 3.839844 17.371094 L 4.8125 17.371094 L 4.8125 22.3125 L 3.839844 22.3125 Z M 3.839844 17.371094 " clip-rule="nonzero"/></clipPath><clipPath id="0d380b15d4"><path d="M 4.328125 17.371094 C 4.457031 17.371094 4.578125 17.421875 4.671875 17.511719 C 4.761719 17.601562 4.8125 17.726562 4.8125 17.855469 L 4.8125 21.824219 C 4.8125 21.953125 4.761719 22.074219 4.671875 22.167969 C 4.578125 22.257812 4.457031 22.308594 4.328125 22.308594 C 4.199219 22.308594 4.074219 22.257812 3.984375 22.167969 C 3.890625 22.074219 3.839844 21.953125 3.839844 21.824219 L 3.839844 17.855469 C 3.839844 17.726562 3.890625 17.601562 3.984375 17.511719 C 4.074219 17.421875 4.199219 17.371094 4.328125 17.371094 Z M 4.328125 17.371094 " clip-rule="nonzero"/></clipPath><clipPath id="ea241afd48"><path d="M 0.839844 0.371094 L 1.8125 0.371094 L 1.8125 5.3125 L 0.839844 5.3125 Z M 0.839844 0.371094 " clip-rule="nonzero"/></clipPath><clipPath id="cf1a4aa1b9"><path d="M 1.328125 0.371094 C 1.457031 0.371094 1.578125 0.421875 1.671875 0.511719 C 1.761719 0.601562 1.8125 0.726562 1.8125 0.855469 L 1.8125 4.824219 C 1.8125 4.953125 1.761719 5.074219 1.671875 5.167969 C 1.578125 5.257812 1.457031 5.308594 1.328125 5.308594 C 1.199219 5.308594 1.074219 5.257812 0.984375 5.167969 C 0.890625 5.074219 0.839844 4.953125 0.839844 4.824219 L 0.839844 0.855469 C 0.839844 0.726562 0.890625 0.601562 0.984375 0.511719 C 1.074219 0.421875 1.199219 0.371094 1.328125 0.371094 Z M 1.328125 0.371094 " clip-rule="nonzero"/></clipPath><clipPath id="d9de04a6c6"><rect x="0" width="2" y="0" height="6"/></clipPath><clipPath id="5212940137"><path d="M 5.503906 17.328125 L 6.476562 17.328125 L 6.476562 23.320312 L 5.503906 23.320312 Z M 5.503906 17.328125 " clip-rule="nonzero"/></clipPath><clipPath id="9124f3c351"><path d="M 5.988281 17.328125 C 6.117188 17.328125 6.242188 17.378906 6.332031 17.472656 C 6.425781 17.5625 6.476562 17.6875 6.476562 17.816406 L 6.476562 22.832031 C 6.476562 22.960938 6.425781 23.082031 6.332031 23.175781 C 6.242188 23.265625 6.117188 23.316406 5.988281 23.316406 C 5.859375 23.316406 5.734375 23.265625 5.644531 23.175781 C 5.554688 23.082031 5.503906 22.960938 5.503906 22.832031 L 5.503906 17.816406 C 5.503906 17.6875 5.554688 17.5625 5.644531 17.472656 C 5.734375 17.378906 5.859375 17.328125 5.988281 17.328125 Z M 5.988281 17.328125 " clip-rule="nonzero"/></clipPath><clipPath id="9240e5cb09"><path d="M 0.503906 0.328125 L 1.476562 0.328125 L 1.476562 6.320312 L 0.503906 6.320312 Z M 0.503906 0.328125 " clip-rule="nonzero"/></clipPath><clipPath id="b13913b673"><path d="M 0.988281 0.328125 C 1.117188 0.328125 1.242188 0.378906 1.332031 0.472656 C 1.425781 0.5625 1.476562 0.6875 1.476562 0.816406 L 1.476562 5.832031 C 1.476562 5.960938 1.425781 6.082031 1.332031 6.175781 C 1.242188 6.265625 1.117188 6.316406 0.988281 6.316406 C 0.859375 6.316406 0.734375 6.265625 0.644531 6.175781 C 0.554688 6.082031 0.503906 5.960938 0.503906 5.832031 L 0.503906 0.816406 C 0.503906 0.6875 0.554688 0.5625 0.644531 0.472656 C 0.734375 0.378906 0.859375 0.328125 0.988281 0.328125 Z M 0.988281 0.328125 " clip-rule="nonzero"/></clipPath><clipPath id="59890059bb"><rect x="0" width="2" y="0" height="7"/></clipPath><clipPath id="e5bb431d38"><path d="M 7.164062 18.003906 L 8.136719 18.003906 L 8.136719 24.441406 L 7.164062 24.441406 Z M 7.164062 18.003906 " clip-rule="nonzero"/></clipPath><clipPath id="8f465fa08c"><path d="M 7.652344 18.003906 C 7.78125 18.003906 7.902344 18.054688 7.996094 18.144531 C 8.085938 18.238281 8.136719 18.359375 8.136719 18.488281 L 8.136719 23.953125 C 8.136719 24.082031 8.085938 24.207031 7.996094 24.296875 C 7.902344 24.390625 7.78125 24.441406 7.652344 24.441406 C 7.523438 24.441406 7.398438 24.390625 7.308594 24.296875 C 7.214844 24.207031 7.164062 24.082031 7.164062 23.953125 L 7.164062 18.488281 C 7.164062 18.359375 7.214844 18.238281 7.308594 18.144531 C 7.398438 18.054688 7.523438 18.003906 7.652344 18.003906 Z M 7.652344 18.003906 " clip-rule="nonzero"/></clipPath><clipPath id="045752fcda"><path d="M 0.164062 0.00390625 L 1.136719 0.00390625 L 1.136719 6.441406 L 0.164062 6.441406 Z M 0.164062 0.00390625 " clip-rule="nonzero"/></clipPath><clipPath id="4683be8261"><path d="M 0.652344 0.00390625 C 0.78125 0.00390625 0.902344 0.0546875 0.996094 0.144531 C 1.085938 0.238281 1.136719 0.359375 1.136719 0.488281 L 1.136719 5.953125 C 1.136719 6.082031 1.085938 6.207031 0.996094 6.296875 C 0.902344 6.390625 0.78125 6.441406 0.652344 6.441406 C 0.523438 6.441406 0.398438 6.390625 0.308594 6.296875 C 0.214844 6.207031 0.164062 6.082031 0.164062 5.953125 L 0.164062 0.488281 C 0.164062 0.359375 0.214844 0.238281 0.308594 0.144531 C 0.398438 0.0546875 0.523438 0.00390625 0.652344 0.00390625 Z M 0.652344 0.00390625 " clip-rule="nonzero"/></clipPath><clipPath id="2520e19d33"><rect x="0" width="2" y="0" height="7"/></clipPath><clipPath id="ef12fb06c8"><path d="M 2.117188 17.925781 L 3.089844 17.925781 L 3.089844 20.921875 L 2.117188 20.921875 Z M 2.117188 17.925781 " clip-rule="nonzero"/></clipPath><clipPath id="861854d3cb"><path d="M 2.605469 20.921875 C 2.476562 20.921875 2.351562 20.871094 2.261719 20.78125 C 2.167969 20.6875 2.117188 20.566406 2.117188 20.433594 L 2.117188 18.414062 C 2.117188 18.285156 2.167969 18.160156 2.261719 18.070312 C 2.351562 17.980469 2.476562 17.929688 2.605469 17.929688 C 2.734375 17.929688 2.859375 17.980469 2.949219 18.070312 C 3.039062 18.160156 3.089844 18.285156 3.089844 18.414062 L 3.089844 20.433594 C 3.089844 20.566406 3.039062 20.6875 2.949219 20.78125 C 2.859375 20.871094 2.734375 20.921875 2.605469 20.921875 Z M 2.605469 20.921875 " clip-rule="nonzero"/></clipPath><clipPath id="102c3d8d2c"><path d="M 0.117188 0.925781 L 1.089844 0.925781 L 1.089844 3.921875 L 0.117188 3.921875 Z M 0.117188 0.925781 " clip-rule="nonzero"/></clipPath><clipPath id="6dedda47d7"><path d="M 0.605469 3.921875 C 0.476562 3.921875 0.351562 3.871094 0.261719 3.78125 C 0.167969 3.6875 0.117188 3.566406 0.117188 3.433594 L 0.117188 1.414062 C 0.117188 1.285156 0.167969 1.160156 0.261719 1.070312 C 0.351562 0.980469 0.476562 0.929688 0.605469 0.929688 C 0.734375 0.929688 0.859375 0.980469 0.949219 1.070312 C 1.039062 1.160156 1.089844 1.285156 1.089844 1.414062 L 1.089844 3.433594 C 1.089844 3.566406 1.039062 3.6875 0.949219 3.78125 C 0.859375 3.871094 0.734375 3.921875 0.605469 3.921875 Z M 0.605469 3.921875 " clip-rule="nonzero"/></clipPath><clipPath id="417c8b8261"><rect x="0" width="2" y="0" height="4"/></clipPath><clipPath id="9d0189af96"><path d="M 0.398438 18.972656 L 1.371094 18.972656 L 1.371094 20.324219 L 0.398438 20.324219 Z M 0.398438 18.972656 " clip-rule="nonzero"/></clipPath><clipPath id="2e37939a6a"><path d="M 0.882812 20.324219 C 0.753906 20.324219 0.628906 20.273438 0.539062 20.179688 C 0.449219 20.089844 0.398438 19.964844 0.398438 19.835938 L 0.398438 19.460938 C 0.398438 19.332031 0.449219 19.210938 0.539062 19.117188 C 0.628906 19.027344 0.753906 18.976562 0.882812 18.976562 C 1.011719 18.976562 1.136719 19.027344 1.226562 19.117188 C 1.320312 19.210938 1.371094 19.332031 1.371094 19.460938 L 1.371094 19.835938 C 1.371094 19.964844 1.320312 20.089844 1.226562 20.179688 C 1.136719 20.273438 1.011719 20.324219 0.882812 20.324219 Z M 0.882812 20.324219 " clip-rule="nonzero"/></clipPath><clipPath id="a2cd37e32a"><path d="M 0.398438 0.972656 L 1.371094 0.972656 L 1.371094 2.324219 L 0.398438 2.324219 Z M 0.398438 0.972656 " clip-rule="nonzero"/></clipPath><clipPath id="2d82358e4a"><path d="M 0.882812 2.324219 C 0.753906 2.324219 0.628906 2.273438 0.539062 2.179688 C 0.449219 2.089844 0.398438 1.964844 0.398438 1.835938 L 0.398438 1.460938 C 0.398438 1.332031 0.449219 1.210938 0.539062 1.117188 C 0.628906 1.027344 0.753906 0.976562 0.882812 0.976562 C 1.011719 0.976562 1.136719 1.027344 1.226562 1.117188 C 1.320312 1.210938 1.371094 1.332031 1.371094 1.460938 L 1.371094 1.835938 C 1.371094 1.964844 1.320312 2.089844 1.226562 2.179688 C 1.136719 2.273438 1.011719 2.324219 0.882812 2.324219 Z M 0.882812 2.324219 " clip-rule="nonzero"/></clipPath><clipPath id="9388320913"><rect x="0" width="2" y="0" height="3"/></clipPath><clipPath id="e66547cf59"><path d="M 10.613281 11.191406 L 11.585938 11.191406 L 11.585938 24.667969 L 10.613281 24.667969 Z M 10.613281 11.191406 " clip-rule="nonzero"/></clipPath><clipPath id="68d4fe2175"><path d="M 11.097656 11.191406 C 11.226562 11.191406 11.351562 11.242188 11.441406 11.332031 C 11.535156 11.425781 11.585938 11.546875 11.585938 11.675781 L 11.585938 24.179688 C 11.585938 24.308594 11.535156 24.429688 11.441406 24.523438 C 11.351562 24.613281 11.226562 24.664062 11.097656 24.664062 C 10.96875 24.664062 10.84375 24.613281 10.753906 24.523438 C 10.664062 24.429688 10.613281 24.308594 10.613281 24.179688 L 10.613281 11.675781 C 10.613281 11.546875 10.664062 11.425781 10.753906 11.332031 C 10.84375 11.242188 10.96875 11.191406 11.097656 11.191406 Z M 11.097656 11.191406 " clip-rule="nonzero"/></clipPath><clipPath id="58cad008e9"><path d="M 0.613281 0.191406 L 1.585938 0.191406 L 1.585938 13.667969 L 0.613281 13.667969 Z M 0.613281 0.191406 " clip-rule="nonzero"/></clipPath><clipPath id="4f6e991c10"><path d="M 1.097656 0.191406 C 1.226562 0.191406 1.351562 0.242188 1.441406 0.332031 C 1.535156 0.425781 1.585938 0.546875 1.585938 0.675781 L 1.585938 13.179688 C 1.585938 13.308594 1.535156 13.429688 1.441406 13.523438 C 1.351562 13.613281 1.226562 13.664062 1.097656 13.664062 C 0.96875 13.664062 0.84375 13.613281 0.753906 13.523438 C 0.664062 13.429688 0.613281 13.308594 0.613281 13.179688 L 0.613281 0.675781 C 0.613281 0.546875 0.664062 0.425781 0.753906 0.332031 C 0.84375 0.242188 0.96875 0.191406 1.097656 0.191406 Z M 1.097656 0.191406 " clip-rule="nonzero"/></clipPath><clipPath id="71c633890f"><rect x="0" width="2" y="0" height="14"/></clipPath><clipPath id="4789020df2"><path d="M 12.277344 12.621094 L 13.253906 12.621094 L 13.253906 23.101562 L 12.277344 23.101562 Z M 12.277344 12.621094 " clip-rule="nonzero"/></clipPath><clipPath id="9915a0c771"><path d="M 12.765625 12.621094 C 12.894531 12.621094 13.019531 12.671875 13.109375 12.761719 C 13.199219 12.855469 13.253906 12.976562 13.253906 13.105469 L 13.253906 22.613281 C 13.253906 22.742188 13.199219 22.867188 13.109375 22.957031 C 13.019531 23.050781 12.894531 23.101562 12.765625 23.101562 C 12.636719 23.101562 12.511719 23.050781 12.421875 22.957031 C 12.332031 22.867188 12.277344 22.742188 12.277344 22.613281 L 12.277344 13.105469 C 12.277344 12.976562 12.332031 12.855469 12.421875 12.761719 C 12.511719 12.671875 12.636719 12.621094 12.765625 12.621094 Z M 12.765625 12.621094 " clip-rule="nonzero"/></clipPath><clipPath id="fa1e1d898a"><path d="M 0.277344 0.621094 L 1.253906 0.621094 L 1.253906 11.101562 L 0.277344 11.101562 Z M 0.277344 0.621094 " clip-rule="nonzero"/></clipPath><clipPath id="bb9ba41620"><path d="M 0.765625 0.621094 C 0.894531 0.621094 1.019531 0.671875 1.109375 0.761719 C 1.199219 0.855469 1.253906 0.976562 1.253906 1.105469 L 1.253906 10.613281 C 1.253906 10.742188 1.199219 10.867188 1.109375 10.957031 C 1.019531 11.050781 0.894531 11.101562 0.765625 11.101562 C 0.636719 11.101562 0.511719 11.050781 0.421875 10.957031 C 0.332031 10.867188 0.277344 10.742188 0.277344 10.613281 L 0.277344 1.105469 C 0.277344 0.976562 0.332031 0.855469 0.421875 0.761719 C 0.511719 0.671875 0.636719 0.621094 0.765625 0.621094 Z M 0.765625 0.621094 " clip-rule="nonzero"/></clipPath><clipPath id="a1b9158fd8"><rect x="0" width="2" y="0" height="12"/></clipPath><clipPath id="7dd9896d4a"><path d="M 13.9375 14.183594 L 14.910156 14.183594 L 14.910156 21.671875 L 13.9375 21.671875 Z M 13.9375 14.183594 " clip-rule="nonzero"/></clipPath><clipPath id="5e47bee214"><path d="M 14.421875 14.183594 C 14.550781 14.183594 14.675781 14.238281 14.765625 14.328125 C 14.859375 14.417969 14.910156 14.542969 14.910156 14.671875 L 14.910156 21.183594 C 14.910156 21.3125 14.859375 21.4375 14.765625 21.527344 C 14.675781 21.621094 14.550781 21.671875 14.421875 21.671875 C 14.292969 21.671875 14.171875 21.621094 14.078125 21.527344 C 13.988281 21.4375 13.9375 21.3125 13.9375 21.183594 L 13.9375 14.671875 C 13.9375 14.542969 13.988281 14.417969 14.078125 14.328125 C 14.171875 14.238281 14.292969 14.183594 14.421875 14.183594 Z M 14.421875 14.183594 " clip-rule="nonzero"/></clipPath><clipPath id="04ce8b16f6"><path d="M 0.9375 0.183594 L 1.910156 0.183594 L 1.910156 7.671875 L 0.9375 7.671875 Z M 0.9375 0.183594 " clip-rule="nonzero"/></clipPath><clipPath id="9f41f16153"><path d="M 1.421875 0.183594 C 1.550781 0.183594 1.675781 0.238281 1.765625 0.328125 C 1.859375 0.417969 1.910156 0.542969 1.910156 0.671875 L 1.910156 7.183594 C 1.910156 7.3125 1.859375 7.4375 1.765625 7.527344 C 1.675781 7.621094 1.550781 7.671875 1.421875 7.671875 C 1.292969 7.671875 1.171875 7.621094 1.078125 7.527344 C 0.988281 7.4375 0.9375 7.3125 0.9375 7.183594 L 0.9375 0.671875 C 0.9375 0.542969 0.988281 0.417969 1.078125 0.328125 C 1.171875 0.238281 1.292969 0.183594 1.421875 0.183594 Z M 1.421875 0.183594 " clip-rule="nonzero"/></clipPath><clipPath id="1f4f884691"><rect x="0" width="2" y="0" height="8"/></clipPath><clipPath id="a03142e90b"><path d="M 15.691406 16.234375 L 16.664062 16.234375 L 16.664062 19.230469 L 15.691406 19.230469 Z M 15.691406 16.234375 " clip-rule="nonzero"/></clipPath><clipPath id="2f154af776"><path d="M 16.179688 16.234375 C 16.308594 16.234375 16.429688 16.289062 16.523438 16.378906 C 16.613281 16.46875 16.664062 16.59375 16.664062 16.722656 L 16.664062 18.742188 C 16.664062 18.871094 16.613281 18.996094 16.523438 19.085938 C 16.429688 19.179688 16.308594 19.230469 16.179688 19.230469 C 16.050781 19.230469 15.925781 19.179688 15.835938 19.085938 C 15.742188 18.996094 15.691406 18.871094 15.691406 18.742188 L 15.691406 16.722656 C 15.691406 16.59375 15.742188 16.46875 15.835938 16.378906 C 15.925781 16.289062 16.050781 16.234375 16.179688 16.234375 Z M 16.179688 16.234375 " clip-rule="nonzero"/></clipPath><clipPath id="d7caf4325b"><path d="M 0.691406 0.234375 L 1.664062 0.234375 L 1.664062 3.230469 L 0.691406 3.230469 Z M 0.691406 0.234375 " clip-rule="nonzero"/></clipPath><clipPath id="4854802da3"><path d="M 1.179688 0.234375 C 1.308594 0.234375 1.429688 0.289062 1.523438 0.378906 C 1.613281 0.46875 1.664062 0.59375 1.664062 0.722656 L 1.664062 2.742188 C 1.664062 2.871094 1.613281 2.996094 1.523438 3.085938 C 1.429688 3.179688 1.308594 3.230469 1.179688 3.230469 C 1.050781 3.230469 0.925781 3.179688 0.835938 3.085938 C 0.742188 2.996094 0.691406 2.871094 0.691406 2.742188 L 0.691406 0.722656 C 0.691406 0.59375 0.742188 0.46875 0.835938 0.378906 C 0.925781 0.289062 1.050781 0.234375 1.179688 0.234375 Z M 1.179688 0.234375 " clip-rule="nonzero"/></clipPath><clipPath id="6c2d37385e"><rect x="0" width="2" y="0" height="4"/></clipPath><clipPath id="5998751e10"><path d="M 13.9375 3.980469 L 14.910156 3.980469 L 14.910156 8.921875 L 13.9375 8.921875 Z M 13.9375 3.980469 " clip-rule="nonzero"/></clipPath><clipPath id="b02cb32ef6"><path d="M 14.421875 8.921875 C 14.292969 8.921875 14.171875 8.871094 14.078125 8.78125 C 13.988281 8.691406 13.9375 8.566406 13.9375 8.4375 L 13.9375 4.46875 C 13.9375 4.339844 13.988281 4.21875 14.078125 4.125 C 14.171875 4.035156 14.292969 3.984375 14.421875 3.984375 C 14.550781 3.984375 14.675781 4.035156 14.765625 4.125 C 14.859375 4.21875 14.910156 4.339844 14.910156 4.46875 L 14.910156 8.4375 C 14.910156 8.566406 14.859375 8.691406 14.765625 8.78125 C 14.675781 8.871094 14.550781 8.921875 14.421875 8.921875 Z M 14.421875 8.921875 " clip-rule="nonzero"/></clipPath><clipPath id="07fb86726e"><path d="M 0.9375 0.980469 L 1.910156 0.980469 L 1.910156 5.921875 L 0.9375 5.921875 Z M 0.9375 0.980469 " clip-rule="nonzero"/></clipPath><clipPath id="47f46fa38d"><path d="M 1.421875 5.921875 C 1.292969 5.921875 1.171875 5.871094 1.078125 5.78125 C 0.988281 5.691406 0.9375 5.566406 0.9375 5.4375 L 0.9375 1.46875 C 0.9375 1.339844 0.988281 1.21875 1.078125 1.125 C 1.171875 1.035156 1.292969 0.984375 1.421875 0.984375 C 1.550781 0.984375 1.675781 1.035156 1.765625 1.125 C 1.859375 1.21875 1.910156 1.339844 1.910156 1.46875 L 1.910156 5.4375 C 1.910156 5.566406 1.859375 5.691406 1.765625 5.78125 C 1.675781 5.871094 1.550781 5.921875 1.421875 5.921875 Z M 1.421875 5.921875 " clip-rule="nonzero"/></clipPath><clipPath id="5b56247425"><rect x="0" width="2" y="0" height="6"/></clipPath><clipPath id="dd1704ef0a"><path d="M 12.273438 2.972656 L 13.246094 2.972656 L 13.246094 8.964844 L 12.273438 8.964844 Z M 12.273438 2.972656 " clip-rule="nonzero"/></clipPath><clipPath id="b21389a3d8"><path d="M 12.761719 8.964844 C 12.632812 8.964844 12.507812 8.914062 12.417969 8.820312 C 12.324219 8.730469 12.273438 8.605469 12.273438 8.476562 L 12.273438 3.460938 C 12.273438 3.332031 12.324219 3.210938 12.417969 3.117188 C 12.507812 3.027344 12.632812 2.976562 12.761719 2.976562 C 12.890625 2.976562 13.011719 3.027344 13.105469 3.117188 C 13.195312 3.210938 13.246094 3.332031 13.246094 3.460938 L 13.246094 8.476562 C 13.246094 8.605469 13.195312 8.730469 13.105469 8.820312 C 13.011719 8.914062 12.890625 8.964844 12.761719 8.964844 Z M 12.761719 8.964844 " clip-rule="nonzero"/></clipPath><clipPath id="80022479ac"><path d="M 0.273438 0.972656 L 1.246094 0.972656 L 1.246094 6.964844 L 0.273438 6.964844 Z M 0.273438 0.972656 " clip-rule="nonzero"/></clipPath><clipPath id="29ed496900"><path d="M 0.761719 6.964844 C 0.632812 6.964844 0.507812 6.914062 0.417969 6.820312 C 0.324219 6.730469 0.273438 6.605469 0.273438 6.476562 L 0.273438 1.460938 C 0.273438 1.332031 0.324219 1.210938 0.417969 1.117188 C 0.507812 1.027344 0.632812 0.976562 0.761719 0.976562 C 0.890625 0.976562 1.011719 1.027344 1.105469 1.117188 C 1.195312 1.210938 1.246094 1.332031 1.246094 1.460938 L 1.246094 6.476562 C 1.246094 6.605469 1.195312 6.730469 1.105469 6.820312 C 1.011719 6.914062 0.890625 6.964844 0.761719 6.964844 Z M 0.761719 6.964844 " clip-rule="nonzero"/></clipPath><clipPath id="a28392619d"><rect x="0" width="2" y="0" height="7"/></clipPath><clipPath id="6de5d9c843"><path d="M 10.613281 1.851562 L 11.585938 1.851562 L 11.585938 8.289062 L 10.613281 8.289062 Z M 10.613281 1.851562 " clip-rule="nonzero"/></clipPath><clipPath id="1ac45870b6"><path d="M 11.097656 8.289062 C 10.96875 8.289062 10.84375 8.238281 10.753906 8.148438 C 10.664062 8.054688 10.613281 7.933594 10.613281 7.804688 L 10.613281 2.339844 C 10.613281 2.210938 10.664062 2.085938 10.753906 1.996094 C 10.84375 1.902344 10.96875 1.851562 11.097656 1.851562 C 11.226562 1.851562 11.351562 1.902344 11.441406 1.996094 C 11.535156 2.085938 11.585938 2.210938 11.585938 2.339844 L 11.585938 7.804688 C 11.585938 7.933594 11.535156 8.054688 11.441406 8.148438 C 11.351562 8.238281 11.226562 8.289062 11.097656 8.289062 Z M 11.097656 8.289062 " clip-rule="nonzero"/></clipPath><clipPath id="b51a7d92ae"><path d="M 0.613281 0.851562 L 1.585938 0.851562 L 1.585938 7.289062 L 0.613281 7.289062 Z M 0.613281 0.851562 " clip-rule="nonzero"/></clipPath><clipPath id="4bb07e3cbb"><path d="M 1.097656 7.289062 C 0.96875 7.289062 0.84375 7.238281 0.753906 7.148438 C 0.664062 7.054688 0.613281 6.933594 0.613281 6.804688 L 0.613281 1.339844 C 0.613281 1.210938 0.664062 1.085938 0.753906 0.996094 C 0.84375 0.902344 0.96875 0.851562 1.097656 0.851562 C 1.226562 0.851562 1.351562 0.902344 1.441406 0.996094 C 1.535156 1.085938 1.585938 1.210938 1.585938 1.339844 L 1.585938 6.804688 C 1.585938 6.933594 1.535156 7.054688 1.441406 7.148438 C 1.351562 7.238281 1.226562 7.289062 1.097656 7.289062 Z M 1.097656 7.289062 " clip-rule="nonzero"/></clipPath><clipPath id="352af26c2b"><rect x="0" width="2" y="0" height="8"/></clipPath><clipPath id="2e3e077628"><path d="M 15.65625 5.371094 L 16.632812 5.371094 L 16.632812 8.367188 L 15.65625 8.367188 Z M 15.65625 5.371094 " clip-rule="nonzero"/></clipPath><clipPath id="ef16fb1491"><path d="M 16.144531 5.371094 C 16.273438 5.371094 16.398438 5.421875 16.488281 5.511719 C 16.578125 5.605469 16.632812 5.726562 16.632812 5.855469 L 16.632812 7.878906 C 16.632812 8.007812 16.578125 8.132812 16.488281 8.222656 C 16.398438 8.3125 16.273438 8.363281 16.144531 8.363281 C 16.015625 8.363281 15.890625 8.3125 15.800781 8.222656 C 15.710938 8.132812 15.65625 8.007812 15.65625 7.878906 L 15.65625 5.855469 C 15.65625 5.726562 15.710938 5.605469 15.800781 5.511719 C 15.890625 5.421875 16.015625 5.371094 16.144531 5.371094 Z M 16.144531 5.371094 " clip-rule="nonzero"/></clipPath><clipPath id="b8d250c83f"><path d="M 0.65625 0.371094 L 1.632812 0.371094 L 1.632812 3.367188 L 0.65625 3.367188 Z M 0.65625 0.371094 " clip-rule="nonzero"/></clipPath><clipPath id="0e635543de"><path d="M 1.144531 0.371094 C 1.273438 0.371094 1.398438 0.421875 1.488281 0.511719 C 1.578125 0.605469 1.632812 0.726562 1.632812 0.855469 L 1.632812 2.878906 C 1.632812 3.007812 1.578125 3.132812 1.488281 3.222656 C 1.398438 3.3125 1.273438 3.363281 1.144531 3.363281 C 1.015625 3.363281 0.890625 3.3125 0.800781 3.222656 C 0.710938 3.132812 0.65625 3.007812 0.65625 2.878906 L 0.65625 0.855469 C 0.65625 0.726562 0.710938 0.605469 0.800781 0.511719 C 0.890625 0.421875 1.015625 0.371094 1.144531 0.371094 Z M 1.144531 0.371094 " clip-rule="nonzero"/></clipPath><clipPath id="1a37848ebe"><rect x="0" width="2" y="0" height="4"/></clipPath><clipPath id="53efca2876"><path d="M 17.378906 5.96875 L 18.351562 5.96875 L 18.351562 7.320312 L 17.378906 7.320312 Z M 17.378906 5.96875 " clip-rule="nonzero"/></clipPath><clipPath id="08c7de63d7"><path d="M 17.867188 5.96875 C 17.996094 5.96875 18.117188 6.019531 18.210938 6.113281 C 18.300781 6.203125 18.351562 6.328125 18.351562 6.457031 L 18.351562 6.832031 C 18.351562 6.960938 18.300781 7.082031 18.210938 7.175781 C 18.117188 7.265625 17.996094 7.316406 17.867188 7.316406 C 17.738281 7.316406 17.613281 7.265625 17.523438 7.175781 C 17.429688 7.082031 17.378906 6.960938 17.378906 6.832031 L 17.378906 6.457031 C 17.378906 6.328125 17.429688 6.203125 17.523438 6.113281 C 17.613281 6.019531 17.738281 5.96875 17.867188 5.96875 Z M 17.867188 5.96875 " clip-rule="nonzero"/></clipPath><clipPath id="fb638fb3e1"><path d="M 0.378906 0.96875 L 1.351562 0.96875 L 1.351562 2.320312 L 0.378906 2.320312 Z M 0.378906 0.96875 " clip-rule="nonzero"/></clipPath><clipPath id="e11e0253e3"><path d="M 0.867188 0.96875 C 0.996094 0.96875 1.117188 1.019531 1.210938 1.113281 C 1.300781 1.203125 1.351562 1.328125 1.351562 1.457031 L 1.351562 1.832031 C 1.351562 1.960938 1.300781 2.082031 1.210938 2.175781 C 1.117188 2.265625 0.996094 2.316406 0.867188 2.316406 C 0.738281 2.316406 0.613281 2.265625 0.523438 2.175781 C 0.429688 2.082031 0.378906 1.960938 0.378906 1.832031 L 0.378906 1.457031 C 0.378906 1.328125 0.429688 1.203125 0.523438 1.113281 C 0.613281 1.019531 0.738281 0.96875 0.867188 0.96875 Z M 0.867188 0.96875 " clip-rule="nonzero"/></clipPath><clipPath id="a6a911534d"><rect x="0" width="2" y="0" height="3"/></clipPath><clipPath id="838ff99061"><path d="M 8.886719 18.300781 L 9.859375 18.300781 L 9.859375 25.34375 L 8.886719 25.34375 Z M 8.886719 18.300781 " clip-rule="nonzero"/></clipPath><clipPath id="046a26a194"><path d="M 9.375 18.300781 C 9.503906 18.300781 9.628906 18.351562 9.71875 18.445312 C 9.808594 18.535156 9.859375 18.660156 9.859375 18.789062 L 9.859375 24.851562 C 9.859375 24.980469 9.808594 25.105469 9.71875 25.195312 C 9.628906 25.289062 9.503906 25.339844 9.375 25.339844 C 9.246094 25.339844 9.121094 25.289062 9.03125 25.195312 C 8.9375 25.105469 8.886719 24.980469 8.886719 24.851562 L 8.886719 18.789062 C 8.886719 18.660156 8.9375 18.535156 9.03125 18.445312 C 9.121094 18.351562 9.246094 18.300781 9.375 18.300781 Z M 9.375 18.300781 " clip-rule="nonzero"/></clipPath><clipPath id="dba5e4603e"><path d="M 0.886719 0.300781 L 1.859375 0.300781 L 1.859375 7.34375 L 0.886719 7.34375 Z M 0.886719 0.300781 " clip-rule="nonzero"/></clipPath><clipPath id="73c4466ea4"><path d="M 1.375 0.300781 C 1.503906 0.300781 1.628906 0.351562 1.71875 0.445312 C 1.808594 0.535156 1.859375 0.660156 1.859375 0.789062 L 1.859375 6.851562 C 1.859375 6.980469 1.808594 7.105469 1.71875 7.195312 C 1.628906 7.289062 1.503906 7.339844 1.375 7.339844 C 1.246094 7.339844 1.121094 7.289062 1.03125 7.195312 C 0.9375 7.105469 0.886719 6.980469 0.886719 6.851562 L 0.886719 0.789062 C 0.886719 0.660156 0.9375 0.535156 1.03125 0.445312 C 1.121094 0.351562 1.246094 0.300781 1.375 0.300781 Z M 1.375 0.300781 " clip-rule="nonzero"/></clipPath><clipPath id="9e8a619ff6"><rect x="0" width="2" y="0" height="8"/></clipPath><clipPath id="31d365478a"><rect x="0" width="19" y="0" height="26"/></clipPath><clipPath id="0928e6c681"><path d="M 0.0898438 3 L 7 3 L 7 9 L 0.0898438 9 Z M 0.0898438 3 " clip-rule="nonzero"/></clipPath><clipPath id="c26e9dcaab"><rect x="0" width="31" y="0" height="12"/></clipPath></defs><g transform="matrix(1, 0, 0, 1, 18, 13)"><g clip-path="url(#31d365478a)"><g clip-path="url(#f2076fba2f)"><g clip-path="url(#f7e1baa7f2)"><g transform="matrix(1, 0, 0, 1, 8, 0)"><g clip-path="url(#9d3395dc48)"><g clip-path="url(#e6f66e856a)"><g clip-path="url(#bf6b824803)"><path fill="#00cc40" d="M 0.890625 0.667969 L 1.863281 0.667969 L 1.863281 7.703125 L 0.890625 7.703125 Z M 0.890625 0.667969 " fill-opacity="1" fill-rule="nonzero"/></g></g></g></g></g></g><g clip-path="url(#077d21d1de)"><g clip-path="url(#2c6580e919)"><g transform="matrix(1, 0, 0, 1, 8, 9)"><g clip-path="url(#532410bcd5)"><g clip-path="url(#257033d439)"><g clip-path="url(#e2d3e96a3b)"><path fill="#00cc40" d="M 0.890625 0.273438 L 1.863281 0.273438 L 1.863281 7.503906 L 0.890625 7.503906 Z M 0.890625 0.273438 " fill-opacity="1" fill-rule="nonzero"/></g></g></g></g></g></g><g clip-path="url(#30c0379938)"><g clip-path="url(#54099ff27d)"><g transform="matrix(1, 0, 0, 1, 7, 1)"><g clip-path="url(#26fc06f63e)"><g clip-path="url(#cec61abc39)"><g clip-path="url(#2c43250c4d)"><path fill="#00cc40" d="M 1.136719 14.101562 L 0.164062 14.101562 L 0.164062 0.625 L 1.136719 0.625 Z M 1.136719 14.101562 " fill-opacity="1" fill-rule="nonzero"/></g></g></g></g></g></g><g clip-path="url(#6b01e3ff49)"><g clip-path="url(#332dd6db9b)"><g transform="matrix(1, 0, 0, 1, 5, 3)"><g clip-path="url(#4a2b99e018)"><g clip-path="url(#7cb6278088)"><g clip-path="url(#115c7b7b01)"><path fill="#00cc40" d="M 1.46875 10.671875 L 0.496094 10.671875 L 0.496094 0.191406 L 1.46875 0.191406 Z M 1.46875 10.671875 " fill-opacity="1" fill-rule="nonzero"/></g></g></g></g></g></g><g clip-path="url(#319ada75d6)"><g clip-path="url(#6882edb965)"><g transform="matrix(1, 0, 0, 1, 3, 4)"><g clip-path="url(#f99019d6f9)"><g clip-path="url(#26c40bcc93)"><g clip-path="url(#c8f284c209)"><path fill="#00cc40" d="M 1.8125 8.109375 L 0.839844 8.109375 L 0.839844 0.625 L 1.8125 0.625 Z M 1.8125 8.109375 " fill-opacity="1" fill-rule="nonzero"/></g></g></g></g></g></g><g clip-path="url(#ca0cc39f12)"><g clip-path="url(#97c47274f9)"><g transform="matrix(1, 0, 0, 1, 2, 7)"><g clip-path="url(#5a91287a5e)"><g clip-path="url(#4e3121b238)"><g clip-path="url(#83019ade9a)"><path fill="#00cc40" d="M 1.058594 3.058594 L 0.0859375 3.058594 L 0.0859375 0.0625 L 1.058594 0.0625 Z M 1.058594 3.058594 " fill-opacity="1" fill-rule="nonzero"/></g></g></g></g></g></g><g clip-path="url(#4db7bcc11e)"><g clip-path="url(#0d380b15d4)"><g transform="matrix(1, 0, 0, 1, 3, 17)"><g clip-path="url(#d9de04a6c6)"><g clip-path="url(#ea241afd48)"><g clip-path="url(#cf1a4aa1b9)"><path fill="#00cc40" d="M 0.839844 0.371094 L 1.8125 0.371094 L 1.8125 5.3125 L 0.839844 5.3125 Z M 0.839844 0.371094 " fill-opacity="1" fill-rule="nonzero"/></g></g></g></g></g></g><g clip-path="url(#5212940137)"><g clip-path="url(#9124f3c351)"><g transform="matrix(1, 0, 0, 1, 5, 17)"><g clip-path="url(#59890059bb)"><g clip-path="url(#9240e5cb09)"><g clip-path="url(#b13913b673)"><path fill="#00cc40" d="M 0.503906 0.328125 L 1.476562 0.328125 L 1.476562 6.316406 L 0.503906 6.316406 Z M 0.503906 0.328125 " fill-opacity="1" fill-rule="nonzero"/></g></g></g></g></g></g><g clip-path="url(#e5bb431d38)"><g clip-path="url(#8f465fa08c)"><g transform="matrix(1, 0, 0, 1, 7, 18)"><g clip-path="url(#2520e19d33)"><g clip-path="url(#045752fcda)"><g clip-path="url(#4683be8261)"><path fill="#00cc40" d="M 0.164062 0.00390625 L 1.136719 0.00390625 L 1.136719 6.441406 L 0.164062 6.441406 Z M 0.164062 0.00390625 " fill-opacity="1" fill-rule="nonzero"/></g></g></g></g></g></g><g clip-path="url(#ef12fb06c8)"><g clip-path="url(#861854d3cb)"><g transform="matrix(1, 0, 0, 1, 2, 17)"><g clip-path="url(#417c8b8261)"><g clip-path="url(#102c3d8d2c)"><g clip-path="url(#6dedda47d7)"><path fill="#00cc40" d="M 1.089844 3.921875 L 0.117188 3.921875 L 0.117188 0.925781 L 1.089844 0.925781 Z M 1.089844 3.921875 " fill-opacity="1" fill-rule="nonzero"/></g></g></g></g></g></g><g clip-path="url(#9d0189af96)"><g clip-path="url(#2e37939a6a)"><g transform="matrix(1, 0, 0, 1, 0, 18)"><g clip-path="url(#9388320913)"><g clip-path="url(#a2cd37e32a)"><g clip-path="url(#2d82358e4a)"><path fill="#00cc40" d="M 1.371094 2.324219 L 0.398438 2.324219 L 0.398438 0.976562 L 1.371094 0.976562 Z M 1.371094 2.324219 " fill-opacity="1" fill-rule="nonzero"/></g></g></g></g></g></g><g clip-path="url(#e66547cf59)"><g clip-path="url(#68d4fe2175)"><g transform="matrix(1, 0, 0, 1, 10, 11)"><g clip-path="url(#71c633890f)"><g clip-path="url(#58cad008e9)"><g clip-path="url(#4f6e991c10)"><path fill="#00cc40" d="M 0.613281 0.191406 L 1.585938 0.191406 L 1.585938 13.667969 L 0.613281 13.667969 Z M 0.613281 0.191406 " fill-opacity="1" fill-rule="nonzero"/></g></g></g></g></g></g><g clip-path="url(#4789020df2)"><g clip-path="url(#9915a0c771)"><g transform="matrix(1, 0, 0, 1, 12, 12)"><g clip-path="url(#a1b9158fd8)"><g clip-path="url(#fa1e1d898a)"><g clip-path="url(#bb9ba41620)"><path fill="#00cc40" d="M 0.277344 0.621094 L 1.253906 0.621094 L 1.253906 11.101562 L 0.277344 11.101562 Z M 0.277344 0.621094 " fill-opacity="1" fill-rule="nonzero"/></g></g></g></g></g></g><g clip-path="url(#7dd9896d4a)"><g clip-path="url(#5e47bee214)"><g transform="matrix(1, 0, 0, 1, 13, 14)"><g clip-path="url(#1f4f884691)"><g clip-path="url(#04ce8b16f6)"><g clip-path="url(#9f41f16153)"><path fill="#00cc40" d="M 0.9375 0.183594 L 1.910156 0.183594 L 1.910156 7.667969 L 0.9375 7.667969 Z M 0.9375 0.183594 " fill-opacity="1" fill-rule="nonzero"/></g></g></g></g></g></g><g clip-path="url(#a03142e90b)"><g clip-path="url(#2f154af776)"><g transform="matrix(1, 0, 0, 1, 15, 16)"><g clip-path="url(#6c2d37385e)"><g clip-path="url(#d7caf4325b)"><g clip-path="url(#4854802da3)"><path fill="#00cc40" d="M 0.691406 0.234375 L 1.664062 0.234375 L 1.664062 3.230469 L 0.691406 3.230469 Z M 0.691406 0.234375 " fill-opacity="1" fill-rule="nonzero"/></g></g></g></g></g></g><g clip-path="url(#5998751e10)"><g clip-path="url(#b02cb32ef6)"><g transform="matrix(1, 0, 0, 1, 13, 3)"><g clip-path="url(#5b56247425)"><g clip-path="url(#07fb86726e)"><g clip-path="url(#47f46fa38d)"><path fill="#00cc40" d="M 1.910156 5.921875 L 0.9375 5.921875 L 0.9375 0.980469 L 1.910156 0.980469 Z M 1.910156 5.921875 " fill-opacity="1" fill-rule="nonzero"/></g></g></g></g></g></g><g clip-path="url(#dd1704ef0a)"><g clip-path="url(#b21389a3d8)"><g transform="matrix(1, 0, 0, 1, 12, 2)"><g clip-path="url(#a28392619d)"><g clip-path="url(#80022479ac)"><g clip-path="url(#29ed496900)"><path fill="#00cc40" d="M 1.246094 6.964844 L 0.273438 6.964844 L 0.273438 0.976562 L 1.246094 0.976562 Z M 1.246094 6.964844 " fill-opacity="1" fill-rule="nonzero"/></g></g></g></g></g></g><g clip-path="url(#6de5d9c843)"><g clip-path="url(#1ac45870b6)"><g transform="matrix(1, 0, 0, 1, 10, 1)"><g clip-path="url(#352af26c2b)"><g clip-path="url(#b51a7d92ae)"><g clip-path="url(#4bb07e3cbb)"><path fill="#00cc40" d="M 1.585938 7.289062 L 0.613281 7.289062 L 0.613281 0.851562 L 1.585938 0.851562 Z M 1.585938 7.289062 " fill-opacity="1" fill-rule="nonzero"/></g></g></g></g></g></g><g clip-path="url(#2e3e077628)"><g clip-path="url(#ef16fb1491)"><g transform="matrix(1, 0, 0, 1, 15, 5)"><g clip-path="url(#1a37848ebe)"><g clip-path="url(#b8d250c83f)"><g clip-path="url(#0e635543de)"><path fill="#00cc40" d="M 0.65625 0.371094 L 1.632812 0.371094 L 1.632812 3.367188 L 0.65625 3.367188 Z M 0.65625 0.371094 " fill-opacity="1" fill-rule="nonzero"/></g></g></g></g></g></g><g clip-path="url(#53efca2876)"><g clip-path="url(#08c7de63d7)"><g transform="matrix(1, 0, 0, 1, 17, 5)"><g clip-path="url(#a6a911534d)"><g clip-path="url(#fb638fb3e1)"><g clip-path="url(#e11e0253e3)"><path fill="#00cc40" d="M 0.378906 0.96875 L 1.351562 0.96875 L 1.351562 2.316406 L 0.378906 2.316406 Z M 0.378906 0.96875 " fill-opacity="1" fill-rule="nonzero"/></g></g></g></g></g></g><g clip-path="url(#838ff99061)"><g clip-path="url(#046a26a194)"><g transform="matrix(1, 0, 0, 1, 8, 18)"><g clip-path="url(#9e8a619ff6)"><g clip-path="url(#dba5e4603e)"><g clip-path="url(#73c4466ea4)"><path fill="#00cc40" d="M 0.886719 0.300781 L 1.859375 0.300781 L 1.859375 7.339844 L 0.886719 7.339844 Z M 0.886719 0.300781 " fill-opacity="1" fill-rule="nonzero"/></g></g></g></g></g></g></g></g><g transform="matrix(1, 0, 0, 1, 35, 25)"><g clip-path="url(#c26e9dcaab)"><g clip-path="url(#0928e6c681)"><g fill="#00cc40" fill-opacity="1"><g transform="translate(0.319098, 8.629636)"><g><path d="M 3.09375 0.0625 C 2.570312 0.0625 2.097656 -0.0546875 1.671875 -0.296875 C 1.242188 -0.546875 0.90625 -0.882812 0.65625 -1.3125 C 0.40625 -1.738281 0.28125 -2.222656 0.28125 -2.765625 C 0.28125 -3.296875 0.40625 -3.773438 0.65625 -4.203125 C 0.90625 -4.628906 1.242188 -4.960938 1.671875 -5.203125 C 2.097656 -5.441406 2.570312 -5.5625 3.09375 -5.5625 C 3.601562 -5.5625 4.070312 -5.441406 4.5 -5.203125 C 4.925781 -4.960938 5.265625 -4.628906 5.515625 -4.203125 C 5.765625 -3.773438 5.890625 -3.296875 5.890625 -2.765625 C 5.890625 -2.222656 5.765625 -1.738281 5.515625 -1.3125 C 5.265625 -0.882812 4.925781 -0.546875 4.5 -0.296875 C 4.070312 -0.0546875 3.601562 0.0625 3.09375 0.0625 Z M 3.09375 -0.921875 C 3.414062 -0.921875 3.703125 -0.992188 3.953125 -1.140625 C 4.210938 -1.296875 4.410156 -1.507812 4.546875 -1.78125 C 4.691406 -2.0625 4.765625 -2.390625 4.765625 -2.765625 C 4.765625 -3.128906 4.691406 -3.445312 4.546875 -3.71875 C 4.410156 -4 4.210938 -4.210938 3.953125 -4.359375 C 3.703125 -4.503906 3.414062 -4.578125 3.09375 -4.578125 C 2.757812 -4.578125 2.460938 -4.503906 2.203125 -4.359375 C 1.953125 -4.210938 1.753906 -4 1.609375 -3.71875 C 1.472656 -3.445312 1.40625 -3.128906 1.40625 -2.765625 C 1.40625 -2.390625 1.472656 -2.0625 1.609375 -1.78125 C 1.753906 -1.507812 1.953125 -1.296875 2.203125 -1.140625 C 2.460938 -0.992188 2.757812 -0.921875 3.09375 -0.921875 Z M 3.09375 -0.921875 "/></g></g></g></g><g fill="#00cc40" fill-opacity="1"><g transform="translate(6.49291, 8.629636)"><g><path d="M 5.234375 0 L 4.140625 0 L 1.640625 -3.765625 L 1.640625 0 L 0.546875 0 L 0.546875 -5.5 L 1.640625 -5.5 L 4.140625 -1.71875 L 4.140625 -5.5 L 5.234375 -5.5 Z M 5.234375 0 "/></g></g></g><g fill="#00cc40" fill-opacity="1"><g transform="translate(12.273491, 8.629636)"><g><path d="M 3.09375 0.0625 C 2.570312 0.0625 2.097656 -0.0546875 1.671875 -0.296875 C 1.242188 -0.546875 0.90625 -0.882812 0.65625 -1.3125 C 0.40625 -1.738281 0.28125 -2.222656 0.28125 -2.765625 C 0.28125 -3.296875 0.40625 -3.773438 0.65625 -4.203125 C 0.90625 -4.628906 1.242188 -4.960938 1.671875 -5.203125 C 2.097656 -5.441406 2.570312 -5.5625 3.09375 -5.5625 C 3.601562 -5.5625 4.070312 -5.441406 4.5 -5.203125 C 4.925781 -4.960938 5.265625 -4.628906 5.515625 -4.203125 C 5.765625 -3.773438 5.890625 -3.296875 5.890625 -2.765625 C 5.890625 -2.222656 5.765625 -1.738281 5.515625 -1.3125 C 5.265625 -0.882812 4.925781 -0.546875 4.5 -0.296875 C 4.070312 -0.0546875 3.601562 0.0625 3.09375 0.0625 Z M 3.09375 -0.921875 C 3.414062 -0.921875 3.703125 -0.992188 3.953125 -1.140625 C 4.210938 -1.296875 4.410156 -1.507812 4.546875 -1.78125 C 4.691406 -2.0625 4.765625 -2.390625 4.765625 -2.765625 C 4.765625 -3.128906 4.691406 -3.445312 4.546875 -3.71875 C 4.410156 -4 4.210938 -4.210938 3.953125 -4.359375 C 3.703125 -4.503906 3.414062 -4.578125 3.09375 -4.578125 C 2.757812 -4.578125 2.460938 -4.503906 2.203125 -4.359375 C 1.953125 -4.210938 1.753906 -4 1.609375 -3.71875 C 1.472656 -3.445312 1.40625 -3.128906 1.40625 -2.765625 C 1.40625 -2.390625 1.472656 -2.0625 1.609375 -1.78125 C 1.753906 -1.507812 1.953125 -1.296875 2.203125 -1.140625 C 2.460938 -0.992188 2.757812 -0.921875 3.09375 -0.921875 Z M 3.09375 -0.921875 "/></g></g></g><g fill="#00cc40" fill-opacity="1"><g transform="translate(18.447303, 8.629636)"><g><path d="M 3.375 0 L 2.15625 -2.140625 L 1.640625 -2.140625 L 1.640625 0 L 0.546875 0 L 0.546875 -5.484375 L 2.59375 -5.484375 C 3.019531 -5.484375 3.382812 -5.40625 3.6875 -5.25 C 3.988281 -5.101562 4.210938 -4.90625 4.359375 -4.65625 C 4.503906 -4.40625 4.578125 -4.117188 4.578125 -3.796875 C 4.578125 -3.441406 4.472656 -3.117188 4.265625 -2.828125 C 4.054688 -2.535156 3.742188 -2.332031 3.328125 -2.21875 L 4.640625 0 Z M 1.640625 -2.96875 L 2.5625 -2.96875 C 2.863281 -2.96875 3.085938 -3.035156 3.234375 -3.171875 C 3.378906 -3.316406 3.453125 -3.519531 3.453125 -3.78125 C 3.453125 -4.03125 3.378906 -4.222656 3.234375 -4.359375 C 3.085938 -4.503906 2.863281 -4.578125 2.5625 -4.578125 L 1.640625 -4.578125 Z M 1.640625 -2.96875 "/></g></g></g><g fill="#00cc40" fill-opacity="1"><g transform="translate(23.488591, 8.629636)"><g><path d="M 3.90625 -1.046875 L 1.71875 -1.046875 L 1.359375 0 L 0.203125 0 L 2.171875 -5.5 L 3.453125 -5.5 L 5.4375 0 L 4.265625 0 Z M 3.609375 -1.921875 L 2.8125 -4.21875 L 2.015625 -1.921875 Z M 3.609375 -1.921875 "/></g></g></g></g></g></svg>