<svg width="24" height="24" viewBox="0 0 24 24" fill="none" xmlns="http://www.w3.org/2000/svg">
<path fill-rule="evenodd" clip-rule="evenodd" d="M10.1562 0C4.54711 0 0 4.54711 0 10.1562C0 15.7654 4.54711 20.3125 10.1562 20.3125C15.7654 20.3125 20.3125 15.7654 20.3125 10.1562C20.3125 4.54711 15.7654 0 10.1562 0ZM1.5625 10.1562C1.5625 5.41005 5.41005 1.5625 10.1562 1.5625C14.9024 1.5625 18.75 5.41005 18.75 10.1562C18.75 14.9024 14.9024 18.75 10.1562 18.75C5.41005 18.75 1.5625 14.9024 1.5625 10.1562Z" fill="#CFCFCF"/>
<path d="M19.0421 17.9373C18.737 17.6322 18.2423 17.6322 17.9372 17.9372C17.6321 18.2423 17.6321 18.737 17.9372 19.0421L22.1038 23.2087C22.4089 23.5138 22.9035 23.5138 23.2086 23.2087C23.5137 22.9036 23.5137 22.409 23.2086 22.1039L19.0421 17.9373Z" fill="#CFCFCF"/>
</svg>
