<svg xmlns="http://www.w3.org/2000/svg" xmlns:xlink="http://www.w3.org/1999/xlink" width="40" zoomAndPan="magnify" viewBox="0 0 30 41.25" height="55" preserveAspectRatio="xMidYMid meet" version="1.0"><defs><g/><clipPath id="5dd6642ca2"><path d="M 13.984375 8.289062 L 14.640625 8.289062 L 14.640625 13.042969 L 13.984375 13.042969 Z M 13.984375 8.289062 " clip-rule="nonzero"/></clipPath><clipPath id="57c11dd762"><path d="M 14.3125 8.289062 C 14.398438 8.289062 14.484375 8.324219 14.542969 8.386719 C 14.605469 8.449219 14.640625 8.53125 14.640625 8.617188 L 14.640625 12.714844 C 14.640625 12.800781 14.605469 12.882812 14.542969 12.945312 C 14.484375 13.007812 14.398438 13.042969 14.3125 13.042969 C 14.226562 13.042969 14.140625 13.007812 14.078125 12.945312 C 14.019531 12.882812 13.984375 12.800781 13.984375 12.714844 L 13.984375 8.617188 C 13.984375 8.53125 14.019531 8.449219 14.078125 8.386719 C 14.140625 8.324219 14.226562 8.289062 14.3125 8.289062 Z M 14.3125 8.289062 " clip-rule="nonzero"/></clipPath><clipPath id="30d8f297ab"><path d="M 0.984375 0.289062 L 1.640625 0.289062 L 1.640625 5.042969 L 0.984375 5.042969 Z M 0.984375 0.289062 " clip-rule="nonzero"/></clipPath><clipPath id="fb833bed16"><path d="M 1.3125 0.289062 C 1.398438 0.289062 1.484375 0.324219 1.542969 0.386719 C 1.605469 0.449219 1.640625 0.53125 1.640625 0.617188 L 1.640625 4.714844 C 1.640625 4.800781 1.605469 4.882812 1.542969 4.945312 C 1.484375 5.007812 1.398438 5.042969 1.3125 5.042969 C 1.226562 5.042969 1.140625 5.007812 1.078125 4.945312 C 1.019531 4.882812 0.984375 4.800781 0.984375 4.714844 L 0.984375 0.617188 C 0.984375 0.53125 1.019531 0.449219 1.078125 0.386719 C 1.140625 0.324219 1.226562 0.289062 1.3125 0.289062 Z M 1.3125 0.289062 " clip-rule="nonzero"/></clipPath><clipPath id="a21a760997"><rect x="0" width="2" y="0" height="6"/></clipPath><clipPath id="02384a83b8"><path d="M 13.984375 14.105469 L 14.640625 14.105469 L 14.640625 18.988281 L 13.984375 18.988281 Z M 13.984375 14.105469 " clip-rule="nonzero"/></clipPath><clipPath id="c2e5eb8b3f"><path d="M 14.3125 14.105469 C 14.398438 14.105469 14.484375 14.136719 14.542969 14.199219 C 14.605469 14.261719 14.640625 14.34375 14.640625 14.433594 L 14.640625 18.660156 C 14.640625 18.746094 14.605469 18.828125 14.542969 18.890625 C 14.484375 18.953125 14.398438 18.988281 14.3125 18.988281 C 14.226562 18.988281 14.140625 18.953125 14.078125 18.890625 C 14.019531 18.828125 13.984375 18.746094 13.984375 18.660156 L 13.984375 14.433594 C 13.984375 14.34375 14.019531 14.261719 14.078125 14.199219 C 14.140625 14.136719 14.226562 14.105469 14.3125 14.105469 Z M 14.3125 14.105469 " clip-rule="nonzero"/></clipPath><clipPath id="12146354bf"><path d="M 0.984375 0.105469 L 1.640625 0.105469 L 1.640625 4.988281 L 0.984375 4.988281 Z M 0.984375 0.105469 " clip-rule="nonzero"/></clipPath><clipPath id="a1b05c87b6"><path d="M 1.3125 0.105469 C 1.398438 0.105469 1.484375 0.136719 1.542969 0.199219 C 1.605469 0.261719 1.640625 0.34375 1.640625 0.433594 L 1.640625 4.660156 C 1.640625 4.746094 1.605469 4.828125 1.542969 4.890625 C 1.484375 4.953125 1.398438 4.988281 1.3125 4.988281 C 1.226562 4.988281 1.140625 4.953125 1.078125 4.890625 C 1.019531 4.828125 0.984375 4.746094 0.984375 4.660156 L 0.984375 0.433594 C 0.984375 0.34375 1.019531 0.261719 1.078125 0.199219 C 1.140625 0.136719 1.226562 0.105469 1.3125 0.105469 Z M 1.3125 0.105469 " clip-rule="nonzero"/></clipPath><clipPath id="6b0ca4f4e6"><rect x="0" width="2" y="0" height="5"/></clipPath><clipPath id="9eca8e8a9c"><path d="M 12.816406 8.929688 L 13.472656 8.929688 L 13.472656 18.03125 L 12.816406 18.03125 Z M 12.816406 8.929688 " clip-rule="nonzero"/></clipPath><clipPath id="cda07ba2de"><path d="M 13.144531 18.03125 C 13.058594 18.03125 12.972656 17.996094 12.914062 17.933594 C 12.851562 17.875 12.816406 17.789062 12.816406 17.703125 L 12.816406 9.261719 C 12.816406 9.171875 12.851562 9.089844 12.914062 9.027344 C 12.972656 8.964844 13.058594 8.929688 13.144531 8.929688 C 13.234375 8.929688 13.316406 8.964844 13.378906 9.027344 C 13.4375 9.089844 13.472656 9.171875 13.472656 9.261719 L 13.472656 17.703125 C 13.472656 17.789062 13.4375 17.875 13.378906 17.933594 C 13.316406 17.996094 13.234375 18.03125 13.144531 18.03125 Z M 13.144531 18.03125 " clip-rule="nonzero"/></clipPath><clipPath id="0f896f6fcf"><path d="M 0.816406 0.929688 L 1.472656 0.929688 L 1.472656 10.03125 L 0.816406 10.03125 Z M 0.816406 0.929688 " clip-rule="nonzero"/></clipPath><clipPath id="9eaa47b5b8"><path d="M 1.144531 10.03125 C 1.058594 10.03125 0.972656 9.996094 0.914062 9.933594 C 0.851562 9.875 0.816406 9.789062 0.816406 9.703125 L 0.816406 1.261719 C 0.816406 1.171875 0.851562 1.089844 0.914062 1.027344 C 0.972656 0.964844 1.058594 0.929688 1.144531 0.929688 C 1.234375 0.929688 1.316406 0.964844 1.378906 1.027344 C 1.4375 1.089844 1.472656 1.171875 1.472656 1.261719 L 1.472656 9.703125 C 1.472656 9.789062 1.4375 9.875 1.378906 9.933594 C 1.316406 9.996094 1.234375 10.03125 1.144531 10.03125 Z M 1.144531 10.03125 " clip-rule="nonzero"/></clipPath><clipPath id="3ddac12c84"><rect x="0" width="2" y="0" height="11"/></clipPath><clipPath id="50c02b05c4"><path d="M 11.691406 9.984375 L 12.347656 9.984375 L 12.347656 17.0625 L 11.691406 17.0625 Z M 11.691406 9.984375 " clip-rule="nonzero"/></clipPath><clipPath id="5ddd76bd32"><path d="M 12.019531 17.0625 C 11.933594 17.0625 11.847656 17.027344 11.785156 16.964844 C 11.726562 16.90625 11.691406 16.820312 11.691406 16.734375 L 11.691406 10.3125 C 11.691406 10.226562 11.726562 10.140625 11.785156 10.082031 C 11.847656 10.019531 11.933594 9.984375 12.019531 9.984375 C 12.105469 9.984375 12.191406 10.019531 12.25 10.082031 C 12.3125 10.140625 12.347656 10.226562 12.347656 10.3125 L 12.347656 16.734375 C 12.347656 16.820312 12.3125 16.90625 12.25 16.964844 C 12.191406 17.027344 12.105469 17.0625 12.019531 17.0625 Z M 12.019531 17.0625 " clip-rule="nonzero"/></clipPath><clipPath id="e12fb0156e"><path d="M 0.691406 0.984375 L 1.347656 0.984375 L 1.347656 8.0625 L 0.691406 8.0625 Z M 0.691406 0.984375 " clip-rule="nonzero"/></clipPath><clipPath id="2207fbccfb"><path d="M 1.019531 8.0625 C 0.933594 8.0625 0.847656 8.027344 0.785156 7.964844 C 0.726562 7.90625 0.691406 7.820312 0.691406 7.734375 L 0.691406 1.3125 C 0.691406 1.226562 0.726562 1.140625 0.785156 1.082031 C 0.847656 1.019531 0.933594 0.984375 1.019531 0.984375 C 1.105469 0.984375 1.191406 1.019531 1.25 1.082031 C 1.3125 1.140625 1.347656 1.226562 1.347656 1.3125 L 1.347656 7.734375 C 1.347656 7.820312 1.3125 7.90625 1.25 7.964844 C 1.191406 8.027344 1.105469 8.0625 1.019531 8.0625 Z M 1.019531 8.0625 " clip-rule="nonzero"/></clipPath><clipPath id="88da4f142b"><rect x="0" width="2" y="0" height="9"/></clipPath><clipPath id="2d8b7930a5"><path d="M 10.570312 10.957031 L 11.230469 10.957031 L 11.230469 16.015625 L 10.570312 16.015625 Z M 10.570312 10.957031 " clip-rule="nonzero"/></clipPath><clipPath id="64d8cce1f2"><path d="M 10.898438 16.015625 C 10.8125 16.015625 10.730469 15.980469 10.667969 15.917969 C 10.605469 15.855469 10.570312 15.773438 10.570312 15.683594 L 10.570312 11.285156 C 10.570312 11.199219 10.605469 11.117188 10.667969 11.054688 C 10.730469 10.992188 10.8125 10.957031 10.898438 10.957031 C 10.988281 10.957031 11.070312 10.992188 11.132812 11.054688 C 11.195312 11.117188 11.230469 11.199219 11.230469 11.285156 L 11.230469 15.683594 C 11.230469 15.773438 11.195312 15.855469 11.132812 15.917969 C 11.070312 15.980469 10.988281 16.015625 10.898438 16.015625 Z M 10.898438 16.015625 " clip-rule="nonzero"/></clipPath><clipPath id="3824fc85db"><path d="M 0.570312 0.957031 L 1.230469 0.957031 L 1.230469 6.015625 L 0.570312 6.015625 Z M 0.570312 0.957031 " clip-rule="nonzero"/></clipPath><clipPath id="d871d7472d"><path d="M 0.898438 6.015625 C 0.8125 6.015625 0.730469 5.980469 0.667969 5.917969 C 0.605469 5.855469 0.570312 5.773438 0.570312 5.683594 L 0.570312 1.285156 C 0.570312 1.199219 0.605469 1.117188 0.667969 1.054688 C 0.730469 0.992188 0.8125 0.957031 0.898438 0.957031 C 0.988281 0.957031 1.070312 0.992188 1.132812 1.054688 C 1.195312 1.117188 1.230469 1.199219 1.230469 1.285156 L 1.230469 5.683594 C 1.230469 5.773438 1.195312 5.855469 1.132812 5.917969 C 1.070312 5.980469 0.988281 6.015625 0.898438 6.015625 Z M 0.898438 6.015625 " clip-rule="nonzero"/></clipPath><clipPath id="d32f4ced20"><rect x="0" width="2" y="0" height="7"/></clipPath><clipPath id="2960a523c1"><path d="M 9.386719 12.601562 L 10.042969 12.601562 L 10.042969 14.625 L 9.386719 14.625 Z M 9.386719 12.601562 " clip-rule="nonzero"/></clipPath><clipPath id="30e99d4f00"><path d="M 9.714844 14.625 C 9.628906 14.625 9.542969 14.589844 9.480469 14.527344 C 9.421875 14.464844 9.386719 14.382812 9.386719 14.296875 L 9.386719 12.929688 C 9.386719 12.84375 9.421875 12.757812 9.480469 12.699219 C 9.542969 12.636719 9.628906 12.601562 9.714844 12.601562 C 9.800781 12.601562 9.886719 12.636719 9.945312 12.699219 C 10.007812 12.757812 10.042969 12.84375 10.042969 12.929688 L 10.042969 14.296875 C 10.042969 14.382812 10.007812 14.464844 9.945312 14.527344 C 9.886719 14.589844 9.800781 14.625 9.714844 14.625 Z M 9.714844 14.625 " clip-rule="nonzero"/></clipPath><clipPath id="5f3890e5ed"><path d="M 0.386719 0.601562 L 1.042969 0.601562 L 1.042969 2.625 L 0.386719 2.625 Z M 0.386719 0.601562 " clip-rule="nonzero"/></clipPath><clipPath id="239ea68b6b"><path d="M 0.714844 2.625 C 0.628906 2.625 0.542969 2.589844 0.480469 2.527344 C 0.421875 2.464844 0.386719 2.382812 0.386719 2.296875 L 0.386719 0.929688 C 0.386719 0.84375 0.421875 0.757812 0.480469 0.699219 C 0.542969 0.636719 0.628906 0.601562 0.714844 0.601562 C 0.800781 0.601562 0.886719 0.636719 0.945312 0.699219 C 1.007812 0.757812 1.042969 0.84375 1.042969 0.929688 L 1.042969 2.296875 C 1.042969 2.382812 1.007812 2.464844 0.945312 2.527344 C 0.886719 2.589844 0.800781 2.625 0.714844 2.625 Z M 0.714844 2.625 " clip-rule="nonzero"/></clipPath><clipPath id="b11b7850e2"><rect x="0" width="2" y="0" height="3"/></clipPath><clipPath id="ac2b6560fb"><path d="M 10.574219 19.570312 L 11.230469 19.570312 L 11.230469 22.910156 L 10.574219 22.910156 Z M 10.574219 19.570312 " clip-rule="nonzero"/></clipPath><clipPath id="f792785ddb"><path d="M 10.902344 19.570312 C 10.988281 19.570312 11.070312 19.605469 11.132812 19.667969 C 11.195312 19.730469 11.230469 19.8125 11.230469 19.898438 L 11.230469 22.578125 C 11.230469 22.667969 11.195312 22.75 11.132812 22.8125 C 11.070312 22.875 10.988281 22.90625 10.902344 22.90625 C 10.8125 22.90625 10.730469 22.875 10.667969 22.8125 C 10.605469 22.75 10.574219 22.667969 10.574219 22.578125 L 10.574219 19.898438 C 10.574219 19.8125 10.605469 19.730469 10.667969 19.667969 C 10.730469 19.605469 10.8125 19.570312 10.902344 19.570312 Z M 10.902344 19.570312 " clip-rule="nonzero"/></clipPath><clipPath id="3b17a8466e"><path d="M 0.574219 0.570312 L 1.230469 0.570312 L 1.230469 3.910156 L 0.574219 3.910156 Z M 0.574219 0.570312 " clip-rule="nonzero"/></clipPath><clipPath id="35ef5a6ba6"><path d="M 0.902344 0.570312 C 0.988281 0.570312 1.070312 0.605469 1.132812 0.667969 C 1.195312 0.730469 1.230469 0.8125 1.230469 0.898438 L 1.230469 3.578125 C 1.230469 3.667969 1.195312 3.75 1.132812 3.8125 C 1.070312 3.875 0.988281 3.90625 0.902344 3.90625 C 0.8125 3.90625 0.730469 3.875 0.667969 3.8125 C 0.605469 3.75 0.574219 3.667969 0.574219 3.578125 L 0.574219 0.898438 C 0.574219 0.8125 0.605469 0.730469 0.667969 0.667969 C 0.730469 0.605469 0.8125 0.570312 0.902344 0.570312 Z M 0.902344 0.570312 " clip-rule="nonzero"/></clipPath><clipPath id="7bf9323630"><rect x="0" width="2" y="0" height="4"/></clipPath><clipPath id="147af40079"><path d="M 11.695312 19.542969 L 12.351562 19.542969 L 12.351562 23.589844 L 11.695312 23.589844 Z M 11.695312 19.542969 " clip-rule="nonzero"/></clipPath><clipPath id="d2b8756aaf"><path d="M 12.023438 19.542969 C 12.109375 19.542969 12.195312 19.578125 12.257812 19.640625 C 12.316406 19.703125 12.351562 19.785156 12.351562 19.871094 L 12.351562 23.257812 C 12.351562 23.347656 12.316406 23.429688 12.257812 23.492188 C 12.195312 23.554688 12.109375 23.589844 12.023438 23.589844 C 11.9375 23.589844 11.851562 23.554688 11.792969 23.492188 C 11.730469 23.429688 11.695312 23.347656 11.695312 23.257812 L 11.695312 19.871094 C 11.695312 19.785156 11.730469 19.703125 11.792969 19.640625 C 11.851562 19.578125 11.9375 19.542969 12.023438 19.542969 Z M 12.023438 19.542969 " clip-rule="nonzero"/></clipPath><clipPath id="860f2000cc"><path d="M 0.695312 0.542969 L 1.351562 0.542969 L 1.351562 4.589844 L 0.695312 4.589844 Z M 0.695312 0.542969 " clip-rule="nonzero"/></clipPath><clipPath id="07d00f1e4e"><path d="M 1.023438 0.542969 C 1.109375 0.542969 1.195312 0.578125 1.257812 0.640625 C 1.316406 0.703125 1.351562 0.785156 1.351562 0.871094 L 1.351562 4.257812 C 1.351562 4.347656 1.316406 4.429688 1.257812 4.492188 C 1.195312 4.554688 1.109375 4.589844 1.023438 4.589844 C 0.9375 4.589844 0.851562 4.554688 0.792969 4.492188 C 0.730469 4.429688 0.695312 4.347656 0.695312 4.257812 L 0.695312 0.871094 C 0.695312 0.785156 0.730469 0.703125 0.792969 0.640625 C 0.851562 0.578125 0.9375 0.542969 1.023438 0.542969 Z M 1.023438 0.542969 " clip-rule="nonzero"/></clipPath><clipPath id="4ed85b94d3"><rect x="0" width="2" y="0" height="5"/></clipPath><clipPath id="9562d4154f"><path d="M 12.816406 20 L 13.476562 20 L 13.476562 24.347656 L 12.816406 24.347656 Z M 12.816406 20 " clip-rule="nonzero"/></clipPath><clipPath id="279bf594b9"><path d="M 13.148438 20 C 13.234375 20 13.316406 20.035156 13.378906 20.09375 C 13.441406 20.15625 13.476562 20.238281 13.476562 20.328125 L 13.476562 24.019531 C 13.476562 24.105469 13.441406 24.1875 13.378906 24.25 C 13.316406 24.3125 13.234375 24.347656 13.148438 24.347656 C 13.058594 24.347656 12.976562 24.3125 12.914062 24.25 C 12.851562 24.1875 12.816406 24.105469 12.816406 24.019531 L 12.816406 20.328125 C 12.816406 20.238281 12.851562 20.15625 12.914062 20.09375 C 12.976562 20.035156 13.058594 20 13.148438 20 Z M 13.148438 20 " clip-rule="nonzero"/></clipPath><clipPath id="f0fd99011a"><path d="M 0.816406 0 L 1.476562 0 L 1.476562 4.347656 L 0.816406 4.347656 Z M 0.816406 0 " clip-rule="nonzero"/></clipPath><clipPath id="e16225d0ec"><path d="M 1.148438 0 C 1.234375 0 1.316406 0.0351562 1.378906 0.09375 C 1.441406 0.15625 1.476562 0.238281 1.476562 0.328125 L 1.476562 4.019531 C 1.476562 4.105469 1.441406 4.1875 1.378906 4.25 C 1.316406 4.3125 1.234375 4.347656 1.148438 4.347656 C 1.058594 4.347656 0.976562 4.3125 0.914062 4.25 C 0.851562 4.1875 0.816406 4.105469 0.816406 4.019531 L 0.816406 0.328125 C 0.816406 0.238281 0.851562 0.15625 0.914062 0.09375 C 0.976562 0.0351562 1.058594 0 1.148438 0 Z M 1.148438 0 " clip-rule="nonzero"/></clipPath><clipPath id="f97aa5e6ff"><rect x="0" width="2" y="0" height="5"/></clipPath><clipPath id="c191eaa609"><path d="M 9.410156 19.9375 L 10.066406 19.9375 L 10.066406 21.960938 L 9.410156 21.960938 Z M 9.410156 19.9375 " clip-rule="nonzero"/></clipPath><clipPath id="baf0754c55"><path d="M 9.738281 21.960938 C 9.648438 21.960938 9.566406 21.925781 9.503906 21.867188 C 9.441406 21.804688 9.410156 21.722656 9.410156 21.632812 L 9.410156 20.269531 C 9.410156 20.179688 9.441406 20.097656 9.503906 20.035156 C 9.566406 19.976562 9.648438 19.941406 9.738281 19.941406 C 9.824219 19.941406 9.90625 19.976562 9.96875 20.035156 C 10.03125 20.097656 10.066406 20.179688 10.066406 20.269531 L 10.066406 21.632812 C 10.066406 21.722656 10.03125 21.804688 9.96875 21.867188 C 9.90625 21.925781 9.824219 21.960938 9.738281 21.960938 Z M 9.738281 21.960938 " clip-rule="nonzero"/></clipPath><clipPath id="7c460279fc"><path d="M 0.410156 0.9375 L 1.066406 0.9375 L 1.066406 2.960938 L 0.410156 2.960938 Z M 0.410156 0.9375 " clip-rule="nonzero"/></clipPath><clipPath id="29df395c53"><path d="M 0.738281 2.960938 C 0.648438 2.960938 0.566406 2.925781 0.503906 2.867188 C 0.441406 2.804688 0.410156 2.722656 0.410156 2.632812 L 0.410156 1.269531 C 0.410156 1.179688 0.441406 1.097656 0.503906 1.035156 C 0.566406 0.976562 0.648438 0.941406 0.738281 0.941406 C 0.824219 0.941406 0.90625 0.976562 0.96875 1.035156 C 1.03125 1.097656 1.066406 1.179688 1.066406 1.269531 L 1.066406 2.632812 C 1.066406 2.722656 1.03125 2.804688 0.96875 2.867188 C 0.90625 2.925781 0.824219 2.960938 0.738281 2.960938 Z M 0.738281 2.960938 " clip-rule="nonzero"/></clipPath><clipPath id="6dc9a0b42b"><rect x="0" width="2" y="0" height="3"/></clipPath><clipPath id="9d1b6b7293"><path d="M 8.246094 20.652344 L 8.902344 20.652344 L 8.902344 21.566406 L 8.246094 21.566406 Z M 8.246094 20.652344 " clip-rule="nonzero"/></clipPath><clipPath id="c4befb7916"><path d="M 8.574219 21.566406 C 8.488281 21.566406 8.402344 21.53125 8.34375 21.46875 C 8.28125 21.40625 8.246094 21.324219 8.246094 21.238281 L 8.246094 20.984375 C 8.246094 20.898438 8.28125 20.8125 8.34375 20.75 C 8.402344 20.691406 8.488281 20.65625 8.574219 20.65625 C 8.660156 20.65625 8.746094 20.691406 8.808594 20.75 C 8.867188 20.8125 8.902344 20.898438 8.902344 20.984375 L 8.902344 21.238281 C 8.902344 21.324219 8.867188 21.40625 8.808594 21.46875 C 8.746094 21.53125 8.660156 21.566406 8.574219 21.566406 Z M 8.574219 21.566406 " clip-rule="nonzero"/></clipPath><clipPath id="c766dffc87"><path d="M 0.246094 0.652344 L 0.902344 0.652344 L 0.902344 1.566406 L 0.246094 1.566406 Z M 0.246094 0.652344 " clip-rule="nonzero"/></clipPath><clipPath id="2f270d8b6b"><path d="M 0.574219 1.566406 C 0.488281 1.566406 0.402344 1.53125 0.34375 1.46875 C 0.28125 1.40625 0.246094 1.324219 0.246094 1.238281 L 0.246094 0.984375 C 0.246094 0.898438 0.28125 0.8125 0.34375 0.75 C 0.402344 0.691406 0.488281 0.65625 0.574219 0.65625 C 0.660156 0.65625 0.746094 0.691406 0.808594 0.75 C 0.867188 0.8125 0.902344 0.898438 0.902344 0.984375 L 0.902344 1.238281 C 0.902344 1.324219 0.867188 1.40625 0.808594 1.46875 C 0.746094 1.53125 0.660156 1.566406 0.574219 1.566406 Z M 0.574219 1.566406 " clip-rule="nonzero"/></clipPath><clipPath id="9face78ba9"><rect x="0" width="1" y="0" height="2"/></clipPath><clipPath id="faf06df18b"><path d="M 15.144531 15.398438 L 15.804688 15.398438 L 15.804688 24.5 L 15.144531 24.5 Z M 15.144531 15.398438 " clip-rule="nonzero"/></clipPath><clipPath id="aad3345e54"><path d="M 15.476562 15.398438 C 15.5625 15.398438 15.644531 15.433594 15.707031 15.496094 C 15.769531 15.554688 15.804688 15.640625 15.804688 15.726562 L 15.804688 24.167969 C 15.804688 24.257812 15.769531 24.339844 15.707031 24.402344 C 15.644531 24.464844 15.5625 24.5 15.476562 24.5 C 15.386719 24.5 15.304688 24.464844 15.242188 24.402344 C 15.179688 24.339844 15.144531 24.257812 15.144531 24.167969 L 15.144531 15.726562 C 15.144531 15.640625 15.179688 15.554688 15.242188 15.496094 C 15.304688 15.433594 15.386719 15.398438 15.476562 15.398438 Z M 15.476562 15.398438 " clip-rule="nonzero"/></clipPath><clipPath id="43dd8b6b44"><path d="M 0.144531 0.398438 L 0.804688 0.398438 L 0.804688 9.5 L 0.144531 9.5 Z M 0.144531 0.398438 " clip-rule="nonzero"/></clipPath><clipPath id="f43c3a49e2"><path d="M 0.476562 0.398438 C 0.5625 0.398438 0.644531 0.433594 0.707031 0.496094 C 0.769531 0.554688 0.804688 0.640625 0.804688 0.726562 L 0.804688 9.167969 C 0.804688 9.257812 0.769531 9.339844 0.707031 9.402344 C 0.644531 9.464844 0.5625 9.5 0.476562 9.5 C 0.386719 9.5 0.304688 9.464844 0.242188 9.402344 C 0.179688 9.339844 0.144531 9.257812 0.144531 9.167969 L 0.144531 0.726562 C 0.144531 0.640625 0.179688 0.554688 0.242188 0.496094 C 0.304688 0.433594 0.386719 0.398438 0.476562 0.398438 Z M 0.476562 0.398438 " clip-rule="nonzero"/></clipPath><clipPath id="a0b310202f"><rect x="0" width="1" y="0" height="10"/></clipPath><clipPath id="81c16f96bd"><path d="M 16.273438 16.363281 L 16.929688 16.363281 L 16.929688 23.441406 L 16.273438 23.441406 Z M 16.273438 16.363281 " clip-rule="nonzero"/></clipPath><clipPath id="0916586ac0"><path d="M 16.601562 16.363281 C 16.6875 16.363281 16.773438 16.398438 16.832031 16.460938 C 16.894531 16.523438 16.929688 16.605469 16.929688 16.691406 L 16.929688 23.113281 C 16.929688 23.199219 16.894531 23.285156 16.832031 23.34375 C 16.773438 23.40625 16.6875 23.441406 16.601562 23.441406 C 16.515625 23.441406 16.429688 23.40625 16.367188 23.34375 C 16.308594 23.285156 16.273438 23.199219 16.273438 23.113281 L 16.273438 16.691406 C 16.273438 16.605469 16.308594 16.523438 16.367188 16.460938 C 16.429688 16.398438 16.515625 16.363281 16.601562 16.363281 Z M 16.601562 16.363281 " clip-rule="nonzero"/></clipPath><clipPath id="7f87c58068"><path d="M 0.273438 0.363281 L 0.929688 0.363281 L 0.929688 7.441406 L 0.273438 7.441406 Z M 0.273438 0.363281 " clip-rule="nonzero"/></clipPath><clipPath id="c17b71208e"><path d="M 0.601562 0.363281 C 0.6875 0.363281 0.773438 0.398438 0.832031 0.460938 C 0.894531 0.523438 0.929688 0.605469 0.929688 0.691406 L 0.929688 7.113281 C 0.929688 7.199219 0.894531 7.285156 0.832031 7.34375 C 0.773438 7.40625 0.6875 7.441406 0.601562 7.441406 C 0.515625 7.441406 0.429688 7.40625 0.367188 7.34375 C 0.308594 7.285156 0.273438 7.199219 0.273438 7.113281 L 0.273438 0.691406 C 0.273438 0.605469 0.308594 0.523438 0.367188 0.460938 C 0.429688 0.398438 0.515625 0.363281 0.601562 0.363281 Z M 0.601562 0.363281 " clip-rule="nonzero"/></clipPath><clipPath id="8290e4dc67"><rect x="0" width="1" y="0" height="8"/></clipPath><clipPath id="2710f78dac"><path d="M 17.390625 17.421875 L 18.050781 17.421875 L 18.050781 22.476562 L 17.390625 22.476562 Z M 17.390625 17.421875 " clip-rule="nonzero"/></clipPath><clipPath id="97096782c4"><path d="M 17.71875 17.421875 C 17.808594 17.421875 17.890625 17.453125 17.953125 17.515625 C 18.015625 17.578125 18.050781 17.660156 18.050781 17.75 L 18.050781 22.148438 C 18.050781 22.234375 18.015625 22.316406 17.953125 22.378906 C 17.890625 22.441406 17.808594 22.476562 17.71875 22.476562 C 17.632812 22.476562 17.550781 22.441406 17.488281 22.378906 C 17.425781 22.316406 17.390625 22.234375 17.390625 22.148438 L 17.390625 17.75 C 17.390625 17.660156 17.425781 17.578125 17.488281 17.515625 C 17.550781 17.453125 17.632812 17.421875 17.71875 17.421875 Z M 17.71875 17.421875 " clip-rule="nonzero"/></clipPath><clipPath id="adc714951f"><path d="M 0.390625 0.421875 L 1.050781 0.421875 L 1.050781 5.476562 L 0.390625 5.476562 Z M 0.390625 0.421875 " clip-rule="nonzero"/></clipPath><clipPath id="ddbcf76ce3"><path d="M 0.71875 0.421875 C 0.808594 0.421875 0.890625 0.453125 0.953125 0.515625 C 1.015625 0.578125 1.050781 0.660156 1.050781 0.75 L 1.050781 5.148438 C 1.050781 5.234375 1.015625 5.316406 0.953125 5.378906 C 0.890625 5.441406 0.808594 5.476562 0.71875 5.476562 C 0.632812 5.476562 0.550781 5.441406 0.488281 5.378906 C 0.425781 5.316406 0.390625 5.234375 0.390625 5.148438 L 0.390625 0.75 C 0.390625 0.660156 0.425781 0.578125 0.488281 0.515625 C 0.550781 0.453125 0.632812 0.421875 0.71875 0.421875 Z M 0.71875 0.421875 " clip-rule="nonzero"/></clipPath><clipPath id="230fe8c32f"><rect x="0" width="2" y="0" height="6"/></clipPath><clipPath id="84fc95554e"><path d="M 18.578125 18.804688 L 19.234375 18.804688 L 19.234375 20.828125 L 18.578125 20.828125 Z M 18.578125 18.804688 " clip-rule="nonzero"/></clipPath><clipPath id="4a99e4fb6b"><path d="M 18.90625 18.804688 C 18.992188 18.804688 19.078125 18.839844 19.136719 18.902344 C 19.199219 18.964844 19.234375 19.046875 19.234375 19.132812 L 19.234375 20.5 C 19.234375 20.585938 19.199219 20.667969 19.136719 20.730469 C 19.078125 20.792969 18.992188 20.828125 18.90625 20.828125 C 18.820312 20.828125 18.734375 20.792969 18.671875 20.730469 C 18.613281 20.667969 18.578125 20.585938 18.578125 20.5 L 18.578125 19.132812 C 18.578125 19.046875 18.613281 18.964844 18.671875 18.902344 C 18.734375 18.839844 18.820312 18.804688 18.90625 18.804688 Z M 18.90625 18.804688 " clip-rule="nonzero"/></clipPath><clipPath id="509aa99935"><path d="M 0.578125 0.804688 L 1.234375 0.804688 L 1.234375 2.828125 L 0.578125 2.828125 Z M 0.578125 0.804688 " clip-rule="nonzero"/></clipPath><clipPath id="96c83db326"><path d="M 0.90625 0.804688 C 0.992188 0.804688 1.078125 0.839844 1.136719 0.902344 C 1.199219 0.964844 1.234375 1.046875 1.234375 1.132812 L 1.234375 2.5 C 1.234375 2.585938 1.199219 2.667969 1.136719 2.730469 C 1.078125 2.792969 0.992188 2.828125 0.90625 2.828125 C 0.820312 2.828125 0.734375 2.792969 0.671875 2.730469 C 0.613281 2.667969 0.578125 2.585938 0.578125 2.5 L 0.578125 1.132812 C 0.578125 1.046875 0.613281 0.964844 0.671875 0.902344 C 0.734375 0.839844 0.820312 0.804688 0.90625 0.804688 Z M 0.90625 0.804688 " clip-rule="nonzero"/></clipPath><clipPath id="65039e6dcc"><rect x="0" width="2" y="0" height="3"/></clipPath><clipPath id="1574ff0210"><path d="M 17.390625 10.519531 L 18.046875 10.519531 L 18.046875 13.855469 L 17.390625 13.855469 Z M 17.390625 10.519531 " clip-rule="nonzero"/></clipPath><clipPath id="f1d3038a6e"><path d="M 17.71875 13.855469 C 17.632812 13.855469 17.546875 13.820312 17.488281 13.761719 C 17.425781 13.699219 17.390625 13.613281 17.390625 13.527344 L 17.390625 10.847656 C 17.390625 10.761719 17.425781 10.675781 17.488281 10.617188 C 17.546875 10.554688 17.632812 10.519531 17.71875 10.519531 C 17.804688 10.519531 17.890625 10.554688 17.953125 10.617188 C 18.011719 10.675781 18.046875 10.761719 18.046875 10.847656 L 18.046875 13.527344 C 18.046875 13.613281 18.011719 13.699219 17.953125 13.761719 C 17.890625 13.820312 17.804688 13.855469 17.71875 13.855469 Z M 17.71875 13.855469 " clip-rule="nonzero"/></clipPath><clipPath id="8bcf0a3e13"><path d="M 0.390625 0.519531 L 1.046875 0.519531 L 1.046875 3.855469 L 0.390625 3.855469 Z M 0.390625 0.519531 " clip-rule="nonzero"/></clipPath><clipPath id="a5ca4e9026"><path d="M 0.71875 3.855469 C 0.632812 3.855469 0.546875 3.820312 0.488281 3.761719 C 0.425781 3.699219 0.390625 3.613281 0.390625 3.527344 L 0.390625 0.847656 C 0.390625 0.761719 0.425781 0.675781 0.488281 0.617188 C 0.546875 0.554688 0.632812 0.519531 0.71875 0.519531 C 0.804688 0.519531 0.890625 0.554688 0.953125 0.617188 C 1.011719 0.675781 1.046875 0.761719 1.046875 0.847656 L 1.046875 3.527344 C 1.046875 3.613281 1.011719 3.699219 0.953125 3.761719 C 0.890625 3.820312 0.804688 3.855469 0.71875 3.855469 Z M 0.71875 3.855469 " clip-rule="nonzero"/></clipPath><clipPath id="4c8017246b"><rect x="0" width="2" y="0" height="4"/></clipPath><clipPath id="e8b683318f"><path d="M 16.269531 9.84375 L 16.925781 9.84375 L 16.925781 13.890625 L 16.269531 13.890625 Z M 16.269531 9.84375 " clip-rule="nonzero"/></clipPath><clipPath id="6dcff5cf02"><path d="M 16.597656 13.890625 C 16.507812 13.890625 16.425781 13.855469 16.363281 13.792969 C 16.300781 13.730469 16.269531 13.648438 16.269531 13.558594 L 16.269531 10.171875 C 16.269531 10.085938 16.300781 10.003906 16.363281 9.941406 C 16.425781 9.878906 16.507812 9.84375 16.597656 9.84375 C 16.683594 9.84375 16.765625 9.878906 16.828125 9.941406 C 16.890625 10.003906 16.925781 10.085938 16.925781 10.171875 L 16.925781 13.558594 C 16.925781 13.648438 16.890625 13.730469 16.828125 13.792969 C 16.765625 13.855469 16.683594 13.890625 16.597656 13.890625 Z M 16.597656 13.890625 " clip-rule="nonzero"/></clipPath><clipPath id="6b4e603085"><path d="M 0.269531 0.84375 L 0.925781 0.84375 L 0.925781 4.890625 L 0.269531 4.890625 Z M 0.269531 0.84375 " clip-rule="nonzero"/></clipPath><clipPath id="aeaaf502da"><path d="M 0.597656 4.890625 C 0.507812 4.890625 0.425781 4.855469 0.363281 4.792969 C 0.300781 4.730469 0.269531 4.648438 0.269531 4.558594 L 0.269531 1.171875 C 0.269531 1.085938 0.300781 1.003906 0.363281 0.941406 C 0.425781 0.878906 0.507812 0.84375 0.597656 0.84375 C 0.683594 0.84375 0.765625 0.878906 0.828125 0.941406 C 0.890625 1.003906 0.925781 1.085938 0.925781 1.171875 L 0.925781 4.558594 C 0.925781 4.648438 0.890625 4.730469 0.828125 4.792969 C 0.765625 4.855469 0.683594 4.890625 0.597656 4.890625 Z M 0.597656 4.890625 " clip-rule="nonzero"/></clipPath><clipPath id="bd8aafa78d"><rect x="0" width="1" y="0" height="5"/></clipPath><clipPath id="bd9d0117cf"><path d="M 15.144531 9.082031 L 15.800781 9.082031 L 15.800781 13.429688 L 15.144531 13.429688 Z M 15.144531 9.082031 " clip-rule="nonzero"/></clipPath><clipPath id="c32f666cbb"><path d="M 15.472656 13.429688 C 15.386719 13.429688 15.304688 13.394531 15.242188 13.332031 C 15.179688 13.273438 15.144531 13.1875 15.144531 13.101562 L 15.144531 9.410156 C 15.144531 9.324219 15.179688 9.238281 15.242188 9.179688 C 15.304688 9.117188 15.386719 9.082031 15.472656 9.082031 C 15.5625 9.082031 15.644531 9.117188 15.707031 9.179688 C 15.769531 9.238281 15.800781 9.324219 15.800781 9.410156 L 15.800781 13.101562 C 15.800781 13.1875 15.769531 13.273438 15.707031 13.332031 C 15.644531 13.394531 15.5625 13.429688 15.472656 13.429688 Z M 15.472656 13.429688 " clip-rule="nonzero"/></clipPath><clipPath id="15ee68886e"><path d="M 0.144531 0.0820312 L 0.800781 0.0820312 L 0.800781 4.429688 L 0.144531 4.429688 Z M 0.144531 0.0820312 " clip-rule="nonzero"/></clipPath><clipPath id="eb4172f409"><path d="M 0.472656 4.429688 C 0.386719 4.429688 0.304688 4.394531 0.242188 4.332031 C 0.179688 4.273438 0.144531 4.1875 0.144531 4.101562 L 0.144531 0.410156 C 0.144531 0.324219 0.179688 0.238281 0.242188 0.179688 C 0.304688 0.117188 0.386719 0.0820312 0.472656 0.0820312 C 0.5625 0.0820312 0.644531 0.117188 0.707031 0.179688 C 0.769531 0.238281 0.800781 0.324219 0.800781 0.410156 L 0.800781 4.101562 C 0.800781 4.1875 0.769531 4.273438 0.707031 4.332031 C 0.644531 4.394531 0.5625 4.429688 0.472656 4.429688 Z M 0.472656 4.429688 " clip-rule="nonzero"/></clipPath><clipPath id="6458ff3ca6"><rect x="0" width="1" y="0" height="5"/></clipPath><clipPath id="b85fb5fe29"><path d="M 18.554688 11.46875 L 19.210938 11.46875 L 19.210938 13.488281 L 18.554688 13.488281 Z M 18.554688 11.46875 " clip-rule="nonzero"/></clipPath><clipPath id="2fca221f42"><path d="M 18.882812 11.46875 C 18.96875 11.46875 19.054688 11.5 19.117188 11.5625 C 19.175781 11.625 19.210938 11.707031 19.210938 11.796875 L 19.210938 13.160156 C 19.210938 13.246094 19.175781 13.332031 19.117188 13.394531 C 19.054688 13.453125 18.96875 13.488281 18.882812 13.488281 C 18.796875 13.488281 18.710938 13.453125 18.652344 13.394531 C 18.589844 13.332031 18.554688 13.246094 18.554688 13.160156 L 18.554688 11.796875 C 18.554688 11.707031 18.589844 11.625 18.652344 11.5625 C 18.710938 11.5 18.796875 11.46875 18.882812 11.46875 Z M 18.882812 11.46875 " clip-rule="nonzero"/></clipPath><clipPath id="c440a7f765"><path d="M 0.554688 0.46875 L 1.210938 0.46875 L 1.210938 2.488281 L 0.554688 2.488281 Z M 0.554688 0.46875 " clip-rule="nonzero"/></clipPath><clipPath id="f479fd93cc"><path d="M 0.882812 0.46875 C 0.96875 0.46875 1.054688 0.5 1.117188 0.5625 C 1.175781 0.625 1.210938 0.707031 1.210938 0.796875 L 1.210938 2.160156 C 1.210938 2.246094 1.175781 2.332031 1.117188 2.394531 C 1.054688 2.453125 0.96875 2.488281 0.882812 2.488281 C 0.796875 2.488281 0.710938 2.453125 0.652344 2.394531 C 0.589844 2.332031 0.554688 2.246094 0.554688 2.160156 L 0.554688 0.796875 C 0.554688 0.707031 0.589844 0.625 0.652344 0.5625 C 0.710938 0.5 0.796875 0.46875 0.882812 0.46875 Z M 0.882812 0.46875 " clip-rule="nonzero"/></clipPath><clipPath id="3505bcfaed"><rect x="0" width="2" y="0" height="3"/></clipPath><clipPath id="78f9d9184a"><path d="M 19.71875 11.871094 L 20.375 11.871094 L 20.375 12.78125 L 19.71875 12.78125 Z M 19.71875 11.871094 " clip-rule="nonzero"/></clipPath><clipPath id="bd4f1f5794"><path d="M 20.046875 11.871094 C 20.132812 11.871094 20.214844 11.90625 20.277344 11.96875 C 20.339844 12.03125 20.375 12.113281 20.375 12.199219 L 20.375 12.453125 C 20.375 12.539062 20.339844 12.625 20.277344 12.683594 C 20.214844 12.746094 20.132812 12.78125 20.046875 12.78125 C 19.957031 12.78125 19.875 12.746094 19.8125 12.683594 C 19.75 12.625 19.71875 12.539062 19.71875 12.453125 L 19.71875 12.199219 C 19.71875 12.113281 19.75 12.03125 19.8125 11.96875 C 19.875 11.90625 19.957031 11.871094 20.046875 11.871094 Z M 20.046875 11.871094 " clip-rule="nonzero"/></clipPath><clipPath id="5c7e71fa50"><path d="M 0.71875 0.871094 L 1.375 0.871094 L 1.375 1.78125 L 0.71875 1.78125 Z M 0.71875 0.871094 " clip-rule="nonzero"/></clipPath><clipPath id="43a074d67f"><path d="M 1.046875 0.871094 C 1.132812 0.871094 1.214844 0.90625 1.277344 0.96875 C 1.339844 1.03125 1.375 1.113281 1.375 1.199219 L 1.375 1.453125 C 1.375 1.539062 1.339844 1.625 1.277344 1.683594 C 1.214844 1.746094 1.132812 1.78125 1.046875 1.78125 C 0.957031 1.78125 0.875 1.746094 0.8125 1.683594 C 0.75 1.625 0.71875 1.539062 0.71875 1.453125 L 0.71875 1.199219 C 0.71875 1.113281 0.75 1.03125 0.8125 0.96875 C 0.875 0.90625 0.957031 0.871094 1.046875 0.871094 Z M 1.046875 0.871094 " clip-rule="nonzero"/></clipPath><clipPath id="5760d25da6"><rect x="0" width="2" y="0" height="2"/></clipPath><clipPath id="21f9f961d0"><path d="M 13.980469 20.199219 L 14.640625 20.199219 L 14.640625 24.957031 L 13.980469 24.957031 Z M 13.980469 20.199219 " clip-rule="nonzero"/></clipPath><clipPath id="64c0fee212"><path d="M 14.3125 20.199219 C 14.398438 20.199219 14.480469 20.234375 14.542969 20.296875 C 14.605469 20.359375 14.640625 20.441406 14.640625 20.53125 L 14.640625 24.625 C 14.640625 24.710938 14.605469 24.796875 14.542969 24.855469 C 14.480469 24.917969 14.398438 24.953125 14.3125 24.953125 C 14.222656 24.953125 14.140625 24.917969 14.078125 24.855469 C 14.015625 24.796875 13.980469 24.710938 13.980469 24.625 L 13.980469 20.53125 C 13.980469 20.441406 14.015625 20.359375 14.078125 20.296875 C 14.140625 20.234375 14.222656 20.199219 14.3125 20.199219 Z M 14.3125 20.199219 " clip-rule="nonzero"/></clipPath><clipPath id="549d5ed76f"><path d="M 0.980469 0.199219 L 1.640625 0.199219 L 1.640625 4.957031 L 0.980469 4.957031 Z M 0.980469 0.199219 " clip-rule="nonzero"/></clipPath><clipPath id="3171c78147"><path d="M 1.3125 0.199219 C 1.398438 0.199219 1.480469 0.234375 1.542969 0.296875 C 1.605469 0.359375 1.640625 0.441406 1.640625 0.53125 L 1.640625 4.625 C 1.640625 4.710938 1.605469 4.796875 1.542969 4.855469 C 1.480469 4.917969 1.398438 4.953125 1.3125 4.953125 C 1.222656 4.953125 1.140625 4.917969 1.078125 4.855469 C 1.015625 4.796875 0.980469 4.710938 0.980469 4.625 L 0.980469 0.53125 C 0.980469 0.441406 1.015625 0.359375 1.078125 0.296875 C 1.140625 0.234375 1.222656 0.199219 1.3125 0.199219 Z M 1.3125 0.199219 " clip-rule="nonzero"/></clipPath><clipPath id="b029eeab0f"><rect x="0" width="2" y="0" height="5"/></clipPath><clipPath id="1831ba2cf5"><path d="M 0.332031 2 L 4 2 L 4 7 L 0.332031 7 Z M 0.332031 2 " clip-rule="nonzero"/></clipPath><clipPath id="586fb5f9b5"><rect x="0" width="25" y="0" height="9"/></clipPath></defs><g clip-path="url(#5dd6642ca2)"><g clip-path="url(#57c11dd762)"><g transform="matrix(1, 0, 0, 1, 13, 8)"><g clip-path="url(#a21a760997)"><g clip-path="url(#30d8f297ab)"><g clip-path="url(#fb833bed16)"><path fill="#00cc40" d="M 0.984375 0.289062 L 1.640625 0.289062 L 1.640625 5.042969 L 0.984375 5.042969 Z M 0.984375 0.289062 " fill-opacity="1" fill-rule="nonzero"/></g></g></g></g></g></g><g clip-path="url(#02384a83b8)"><g clip-path="url(#c2e5eb8b3f)"><g transform="matrix(1, 0, 0, 1, 13, 14)"><g clip-path="url(#6b0ca4f4e6)"><g clip-path="url(#12146354bf)"><g clip-path="url(#a1b05c87b6)"><path fill="#00cc40" d="M 0.984375 0.105469 L 1.640625 0.105469 L 1.640625 4.988281 L 0.984375 4.988281 Z M 0.984375 0.105469 " fill-opacity="1" fill-rule="nonzero"/></g></g></g></g></g></g><g clip-path="url(#9eca8e8a9c)"><g clip-path="url(#cda07ba2de)"><g transform="matrix(1, 0, 0, 1, 12, 8)"><g clip-path="url(#3ddac12c84)"><g clip-path="url(#0f896f6fcf)"><g clip-path="url(#9eaa47b5b8)"><path fill="#00cc40" d="M 1.472656 10.03125 L 0.816406 10.03125 L 0.816406 0.929688 L 1.472656 0.929688 Z M 1.472656 10.03125 " fill-opacity="1" fill-rule="nonzero"/></g></g></g></g></g></g><g clip-path="url(#50c02b05c4)"><g clip-path="url(#5ddd76bd32)"><g transform="matrix(1, 0, 0, 1, 11, 9)"><g clip-path="url(#88da4f142b)"><g clip-path="url(#e12fb0156e)"><g clip-path="url(#2207fbccfb)"><path fill="#00cc40" d="M 1.347656 8.0625 L 0.691406 8.0625 L 0.691406 0.984375 L 1.347656 0.984375 Z M 1.347656 8.0625 " fill-opacity="1" fill-rule="nonzero"/></g></g></g></g></g></g><g clip-path="url(#2d8b7930a5)"><g clip-path="url(#64d8cce1f2)"><g transform="matrix(1, 0, 0, 1, 10, 10)"><g clip-path="url(#d32f4ced20)"><g clip-path="url(#3824fc85db)"><g clip-path="url(#d871d7472d)"><path fill="#00cc40" d="M 1.230469 6.015625 L 0.570312 6.015625 L 0.570312 0.957031 L 1.230469 0.957031 Z M 1.230469 6.015625 " fill-opacity="1" fill-rule="nonzero"/></g></g></g></g></g></g><g clip-path="url(#2960a523c1)"><g clip-path="url(#30e99d4f00)"><g transform="matrix(1, 0, 0, 1, 9, 12)"><g clip-path="url(#b11b7850e2)"><g clip-path="url(#5f3890e5ed)"><g clip-path="url(#239ea68b6b)"><path fill="#00cc40" d="M 1.042969 2.625 L 0.386719 2.625 L 0.386719 0.601562 L 1.042969 0.601562 Z M 1.042969 2.625 " fill-opacity="1" fill-rule="nonzero"/></g></g></g></g></g></g><g clip-path="url(#ac2b6560fb)"><g clip-path="url(#f792785ddb)"><g transform="matrix(1, 0, 0, 1, 10, 19)"><g clip-path="url(#7bf9323630)"><g clip-path="url(#3b17a8466e)"><g clip-path="url(#35ef5a6ba6)"><path fill="#00cc40" d="M 0.574219 0.570312 L 1.230469 0.570312 L 1.230469 3.910156 L 0.574219 3.910156 Z M 0.574219 0.570312 " fill-opacity="1" fill-rule="nonzero"/></g></g></g></g></g></g><g clip-path="url(#147af40079)"><g clip-path="url(#d2b8756aaf)"><g transform="matrix(1, 0, 0, 1, 11, 19)"><g clip-path="url(#4ed85b94d3)"><g clip-path="url(#860f2000cc)"><g clip-path="url(#07d00f1e4e)"><path fill="#00cc40" d="M 0.695312 0.542969 L 1.351562 0.542969 L 1.351562 4.585938 L 0.695312 4.585938 Z M 0.695312 0.542969 " fill-opacity="1" fill-rule="nonzero"/></g></g></g></g></g></g><g clip-path="url(#9562d4154f)"><g clip-path="url(#279bf594b9)"><g transform="matrix(1, 0, 0, 1, 12, 20)"><g clip-path="url(#f97aa5e6ff)"><g clip-path="url(#f0fd99011a)"><g clip-path="url(#e16225d0ec)"><path fill="#00cc40" d="M 0.816406 0 L 1.476562 0 L 1.476562 4.347656 L 0.816406 4.347656 Z M 0.816406 0 " fill-opacity="1" fill-rule="nonzero"/></g></g></g></g></g></g><g clip-path="url(#c191eaa609)"><g clip-path="url(#baf0754c55)"><g transform="matrix(1, 0, 0, 1, 9, 19)"><g clip-path="url(#6dc9a0b42b)"><g clip-path="url(#7c460279fc)"><g clip-path="url(#29df395c53)"><path fill="#00cc40" d="M 1.066406 2.960938 L 0.410156 2.960938 L 0.410156 0.9375 L 1.066406 0.9375 Z M 1.066406 2.960938 " fill-opacity="1" fill-rule="nonzero"/></g></g></g></g></g></g><g clip-path="url(#9d1b6b7293)"><g clip-path="url(#c4befb7916)"><g transform="matrix(1, 0, 0, 1, 8, 20)"><g clip-path="url(#9face78ba9)"><g clip-path="url(#c766dffc87)"><g clip-path="url(#2f270d8b6b)"><path fill="#00cc40" d="M 0.902344 1.566406 L 0.246094 1.566406 L 0.246094 0.65625 L 0.902344 0.65625 Z M 0.902344 1.566406 " fill-opacity="1" fill-rule="nonzero"/></g></g></g></g></g></g><g clip-path="url(#faf06df18b)"><g clip-path="url(#aad3345e54)"><g transform="matrix(1, 0, 0, 1, 15, 15)"><g clip-path="url(#a0b310202f)"><g clip-path="url(#43dd8b6b44)"><g clip-path="url(#f43c3a49e2)"><path fill="#00cc40" d="M 0.144531 0.398438 L 0.804688 0.398438 L 0.804688 9.5 L 0.144531 9.5 Z M 0.144531 0.398438 " fill-opacity="1" fill-rule="nonzero"/></g></g></g></g></g></g><g clip-path="url(#81c16f96bd)"><g clip-path="url(#0916586ac0)"><g transform="matrix(1, 0, 0, 1, 16, 16)"><g clip-path="url(#8290e4dc67)"><g clip-path="url(#7f87c58068)"><g clip-path="url(#c17b71208e)"><path fill="#00cc40" d="M 0.273438 0.363281 L 0.929688 0.363281 L 0.929688 7.441406 L 0.273438 7.441406 Z M 0.273438 0.363281 " fill-opacity="1" fill-rule="nonzero"/></g></g></g></g></g></g><g clip-path="url(#2710f78dac)"><g clip-path="url(#97096782c4)"><g transform="matrix(1, 0, 0, 1, 17, 17)"><g clip-path="url(#230fe8c32f)"><g clip-path="url(#adc714951f)"><g clip-path="url(#ddbcf76ce3)"><path fill="#00cc40" d="M 0.390625 0.421875 L 1.050781 0.421875 L 1.050781 5.476562 L 0.390625 5.476562 Z M 0.390625 0.421875 " fill-opacity="1" fill-rule="nonzero"/></g></g></g></g></g></g><g clip-path="url(#84fc95554e)"><g clip-path="url(#4a99e4fb6b)"><g transform="matrix(1, 0, 0, 1, 18, 18)"><g clip-path="url(#65039e6dcc)"><g clip-path="url(#509aa99935)"><g clip-path="url(#96c83db326)"><path fill="#00cc40" d="M 0.578125 0.804688 L 1.234375 0.804688 L 1.234375 2.828125 L 0.578125 2.828125 Z M 0.578125 0.804688 " fill-opacity="1" fill-rule="nonzero"/></g></g></g></g></g></g><g clip-path="url(#1574ff0210)"><g clip-path="url(#f1d3038a6e)"><g transform="matrix(1, 0, 0, 1, 17, 10)"><g clip-path="url(#4c8017246b)"><g clip-path="url(#8bcf0a3e13)"><g clip-path="url(#a5ca4e9026)"><path fill="#00cc40" d="M 1.046875 3.855469 L 0.390625 3.855469 L 0.390625 0.519531 L 1.046875 0.519531 Z M 1.046875 3.855469 " fill-opacity="1" fill-rule="nonzero"/></g></g></g></g></g></g><g clip-path="url(#e8b683318f)"><g clip-path="url(#6dcff5cf02)"><g transform="matrix(1, 0, 0, 1, 16, 9)"><g clip-path="url(#bd8aafa78d)"><g clip-path="url(#6b4e603085)"><g clip-path="url(#aeaaf502da)"><path fill="#00cc40" d="M 0.925781 4.890625 L 0.269531 4.890625 L 0.269531 0.84375 L 0.925781 0.84375 Z M 0.925781 4.890625 " fill-opacity="1" fill-rule="nonzero"/></g></g></g></g></g></g><g clip-path="url(#bd9d0117cf)"><g clip-path="url(#c32f666cbb)"><g transform="matrix(1, 0, 0, 1, 15, 9)"><g clip-path="url(#6458ff3ca6)"><g clip-path="url(#15ee68886e)"><g clip-path="url(#eb4172f409)"><path fill="#00cc40" d="M 0.800781 4.429688 L 0.144531 4.429688 L 0.144531 0.0820312 L 0.800781 0.0820312 Z M 0.800781 4.429688 " fill-opacity="1" fill-rule="nonzero"/></g></g></g></g></g></g><g clip-path="url(#b85fb5fe29)"><g clip-path="url(#2fca221f42)"><g transform="matrix(1, 0, 0, 1, 18, 11)"><g clip-path="url(#3505bcfaed)"><g clip-path="url(#c440a7f765)"><g clip-path="url(#f479fd93cc)"><path fill="#00cc40" d="M 0.554688 0.46875 L 1.210938 0.46875 L 1.210938 2.488281 L 0.554688 2.488281 Z M 0.554688 0.46875 " fill-opacity="1" fill-rule="nonzero"/></g></g></g></g></g></g><g clip-path="url(#78f9d9184a)"><g clip-path="url(#bd4f1f5794)"><g transform="matrix(1, 0, 0, 1, 19, 11)"><g clip-path="url(#5760d25da6)"><g clip-path="url(#5c7e71fa50)"><g clip-path="url(#43a074d67f)"><path fill="#00cc40" d="M 0.71875 0.871094 L 1.375 0.871094 L 1.375 1.78125 L 0.71875 1.78125 Z M 0.71875 0.871094 " fill-opacity="1" fill-rule="nonzero"/></g></g></g></g></g></g><g clip-path="url(#21f9f961d0)"><g clip-path="url(#64c0fee212)"><g transform="matrix(1, 0, 0, 1, 13, 20)"><g clip-path="url(#b029eeab0f)"><g clip-path="url(#549d5ed76f)"><g clip-path="url(#3171c78147)"><path fill="#00cc40" d="M 0.980469 0.199219 L 1.640625 0.199219 L 1.640625 4.953125 L 0.980469 4.953125 Z M 0.980469 0.199219 " fill-opacity="1" fill-rule="nonzero"/></g></g></g></g></g></g><g transform="matrix(1, 0, 0, 1, 3, 25)"><g clip-path="url(#586fb5f9b5)"><g clip-path="url(#1831ba2cf5)"><g fill="#00cc40" fill-opacity="1"><g transform="translate(0.648409, 6.076327)"><g><path d="M 1.640625 0.03125 C 1.390625 0.03125 1.160156 -0.0078125 0.953125 -0.09375 C 0.742188 -0.1875 0.578125 -0.316406 0.453125 -0.484375 C 0.335938 -0.648438 0.273438 -0.84375 0.265625 -1.0625 L 1.0625 -1.0625 C 1.070312 -0.914062 1.125 -0.796875 1.21875 -0.703125 C 1.320312 -0.617188 1.457031 -0.578125 1.625 -0.578125 C 1.800781 -0.578125 1.9375 -0.617188 2.03125 -0.703125 C 2.132812 -0.785156 2.1875 -0.894531 2.1875 -1.03125 C 2.1875 -1.132812 2.148438 -1.222656 2.078125 -1.296875 C 2.015625 -1.367188 1.929688 -1.425781 1.828125 -1.46875 C 1.734375 -1.507812 1.597656 -1.550781 1.421875 -1.59375 C 1.179688 -1.664062 0.984375 -1.734375 0.828125 -1.796875 C 0.679688 -1.867188 0.550781 -1.972656 0.4375 -2.109375 C 0.332031 -2.253906 0.28125 -2.445312 0.28125 -2.6875 C 0.28125 -2.90625 0.332031 -3.09375 0.4375 -3.25 C 0.550781 -3.414062 0.707031 -3.539062 0.90625 -3.625 C 1.101562 -3.71875 1.332031 -3.765625 1.59375 -3.765625 C 1.96875 -3.765625 2.273438 -3.671875 2.515625 -3.484375 C 2.753906 -3.296875 2.890625 -3.035156 2.921875 -2.703125 L 2.09375 -2.703125 C 2.09375 -2.828125 2.039062 -2.929688 1.9375 -3.015625 C 1.832031 -3.097656 1.695312 -3.140625 1.53125 -3.140625 C 1.382812 -3.140625 1.269531 -3.101562 1.1875 -3.03125 C 1.101562 -2.957031 1.0625 -2.847656 1.0625 -2.703125 C 1.0625 -2.609375 1.09375 -2.523438 1.15625 -2.453125 C 1.21875 -2.390625 1.296875 -2.335938 1.390625 -2.296875 C 1.492188 -2.253906 1.632812 -2.207031 1.8125 -2.15625 C 2.050781 -2.09375 2.242188 -2.023438 2.390625 -1.953125 C 2.546875 -1.878906 2.675781 -1.769531 2.78125 -1.625 C 2.894531 -1.488281 2.953125 -1.304688 2.953125 -1.078125 C 2.953125 -0.878906 2.898438 -0.691406 2.796875 -0.515625 C 2.703125 -0.347656 2.554688 -0.210938 2.359375 -0.109375 C 2.160156 -0.015625 1.921875 0.03125 1.640625 0.03125 Z M 1.640625 0.03125 "/></g></g></g></g><g fill="#00cc40" fill-opacity="1"><g transform="translate(3.883371, 6.076327)"><g><path d="M 2.09375 0.03125 C 1.738281 0.03125 1.414062 -0.046875 1.125 -0.203125 C 0.84375 -0.367188 0.613281 -0.59375 0.4375 -0.875 C 0.269531 -1.164062 0.1875 -1.492188 0.1875 -1.859375 C 0.1875 -2.222656 0.269531 -2.546875 0.4375 -2.828125 C 0.613281 -3.117188 0.84375 -3.347656 1.125 -3.515625 C 1.414062 -3.679688 1.738281 -3.765625 2.09375 -3.765625 C 2.4375 -3.765625 2.753906 -3.679688 3.046875 -3.515625 C 3.335938 -3.347656 3.566406 -3.117188 3.734375 -2.828125 C 3.898438 -2.546875 3.984375 -2.222656 3.984375 -1.859375 C 3.984375 -1.492188 3.898438 -1.164062 3.734375 -0.875 C 3.566406 -0.59375 3.335938 -0.367188 3.046875 -0.203125 C 2.753906 -0.046875 2.4375 0.03125 2.09375 0.03125 Z M 2.09375 -0.625 C 2.3125 -0.625 2.503906 -0.671875 2.671875 -0.765625 C 2.847656 -0.867188 2.984375 -1.015625 3.078125 -1.203125 C 3.171875 -1.398438 3.21875 -1.617188 3.21875 -1.859375 C 3.21875 -2.109375 3.171875 -2.328125 3.078125 -2.515625 C 2.984375 -2.703125 2.847656 -2.84375 2.671875 -2.9375 C 2.503906 -3.039062 2.3125 -3.09375 2.09375 -3.09375 C 1.863281 -3.09375 1.660156 -3.039062 1.484375 -2.9375 C 1.316406 -2.84375 1.1875 -2.703125 1.09375 -2.515625 C 1 -2.328125 0.953125 -2.109375 0.953125 -1.859375 C 0.953125 -1.617188 1 -1.398438 1.09375 -1.203125 C 1.1875 -1.015625 1.316406 -0.867188 1.484375 -0.765625 C 1.660156 -0.671875 1.863281 -0.625 2.09375 -0.625 Z M 2.09375 -0.625 "/></g></g></g><g fill="#00cc40" fill-opacity="1"><g transform="translate(8.053237, 6.076327)"><g><path d="M 3.53125 0 L 2.796875 0 L 1.109375 -2.546875 L 1.109375 0 L 0.359375 0 L 0.359375 -3.71875 L 1.109375 -3.71875 L 2.796875 -1.15625 L 2.796875 -3.71875 L 3.53125 -3.71875 Z M 3.53125 0 "/></g></g></g><g fill="#00cc40" fill-opacity="1"><g transform="translate(11.957508, 6.076327)"><g><path d="M 2.09375 0.03125 C 1.738281 0.03125 1.414062 -0.046875 1.125 -0.203125 C 0.84375 -0.367188 0.613281 -0.59375 0.4375 -0.875 C 0.269531 -1.164062 0.1875 -1.492188 0.1875 -1.859375 C 0.1875 -2.222656 0.269531 -2.546875 0.4375 -2.828125 C 0.613281 -3.117188 0.84375 -3.347656 1.125 -3.515625 C 1.414062 -3.679688 1.738281 -3.765625 2.09375 -3.765625 C 2.4375 -3.765625 2.753906 -3.679688 3.046875 -3.515625 C 3.335938 -3.347656 3.566406 -3.117188 3.734375 -2.828125 C 3.898438 -2.546875 3.984375 -2.222656 3.984375 -1.859375 C 3.984375 -1.492188 3.898438 -1.164062 3.734375 -0.875 C 3.566406 -0.59375 3.335938 -0.367188 3.046875 -0.203125 C 2.753906 -0.046875 2.4375 0.03125 2.09375 0.03125 Z M 2.09375 -0.625 C 2.3125 -0.625 2.503906 -0.671875 2.671875 -0.765625 C 2.847656 -0.867188 2.984375 -1.015625 3.078125 -1.203125 C 3.171875 -1.398438 3.21875 -1.617188 3.21875 -1.859375 C 3.21875 -2.109375 3.171875 -2.328125 3.078125 -2.515625 C 2.984375 -2.703125 2.847656 -2.84375 2.671875 -2.9375 C 2.503906 -3.039062 2.3125 -3.09375 2.09375 -3.09375 C 1.863281 -3.09375 1.660156 -3.039062 1.484375 -2.9375 C 1.316406 -2.84375 1.1875 -2.703125 1.09375 -2.515625 C 1 -2.328125 0.953125 -2.109375 0.953125 -1.859375 C 0.953125 -1.617188 1 -1.398438 1.09375 -1.203125 C 1.1875 -1.015625 1.316406 -0.867188 1.484375 -0.765625 C 1.660156 -0.671875 1.863281 -0.625 2.09375 -0.625 Z M 2.09375 -0.625 "/></g></g></g><g fill="#00cc40" fill-opacity="1"><g transform="translate(16.127374, 6.076327)"><g><path d="M 2.28125 0 L 1.453125 -1.4375 L 1.109375 -1.4375 L 1.109375 0 L 0.359375 0 L 0.359375 -3.703125 L 1.765625 -3.703125 C 2.046875 -3.703125 2.285156 -3.648438 2.484375 -3.546875 C 2.691406 -3.453125 2.84375 -3.316406 2.9375 -3.140625 C 3.039062 -2.972656 3.09375 -2.785156 3.09375 -2.578125 C 3.09375 -2.328125 3.019531 -2.101562 2.875 -1.90625 C 2.738281 -1.707031 2.53125 -1.570312 2.25 -1.5 L 3.140625 0 Z M 1.109375 -2 L 1.734375 -2 C 1.929688 -2 2.078125 -2.046875 2.171875 -2.140625 C 2.273438 -2.242188 2.328125 -2.382812 2.328125 -2.5625 C 2.328125 -2.726562 2.273438 -2.859375 2.171875 -2.953125 C 2.078125 -3.046875 1.929688 -3.09375 1.734375 -3.09375 L 1.109375 -3.09375 Z M 1.109375 -2 "/></g></g></g><g fill="#00cc40" fill-opacity="1"><g transform="translate(19.532318, 6.076327)"><g><path d="M 2.640625 -0.703125 L 1.15625 -0.703125 L 0.921875 0 L 0.140625 0 L 1.46875 -3.71875 L 2.34375 -3.71875 L 3.671875 0 L 2.890625 0 Z M 2.4375 -1.296875 L 1.90625 -2.859375 L 1.359375 -1.296875 Z M 2.4375 -1.296875 "/></g></g></g></g></g></svg>